<?xml version="1.0" standalone="no"?>
 <!DOCTYPE svg PUBLIC "-//W3C//DTD SVG 1.1//EN" 
 "http://www.w3.org/Graphics/SVG/1.1/DTD/svg11.dtd"> 
<svg xmlns="http://www.w3.org/2000/svg" version="1.1" 
    width="29.7002cm" height="21.0007cm" viewBox="0 0 116930 82680 ">
<title>SVG Picture created as bajaLights-brd.svg date 2015/02/12 19:53:49 </title>
  <desc>Picture generated by PCBNEW </desc>
<g style="fill:#000000; fill-opacity:1;stroke:#000000; stroke-opacity:1;
stroke-linecap:round; stroke-linejoin:round; "
 transform="translate(0 0) scale(1 1)">
</g>
<g style="fill:#000000; fill-opacity:0.0; 
stroke:#000000; stroke-width:137.795; stroke-opacity:1; 
stroke-linecap:round; stroke-linejoin:round;">
</g>
<g style="fill:#000000; fill-opacity:1.0; 
stroke:#000000; stroke-width:137.795; stroke-opacity:1; 
stroke-linecap:round; stroke-linejoin:round;">
<polyline style="fill-rule:evenodd;"
points="59168,41590
59168,40928
59831,40928
59831,41590
59168,41590
" /> 
</g>
<g style="fill:#000000; fill-opacity:1.0; 
stroke:#000000; stroke-width:800; stroke-opacity:1; 
stroke-linecap:round; stroke-linejoin:round;">
</g>
<g style="fill:#000000; fill-opacity:0.0; 
stroke:#000000; stroke-width:800; stroke-opacity:1; 
stroke-linecap:round; stroke-linejoin:round;">
<path d="M60500 41259
L60500 41259
" />
</g>
<g style="fill:#000000; fill-opacity:0.0; 
stroke:#000000; stroke-width:137.795; stroke-opacity:1; 
stroke-linecap:round; stroke-linejoin:round;">
</g>
<g style="fill:#000000; fill-opacity:1.0; 
stroke:#000000; stroke-width:137.795; stroke-opacity:1; 
stroke-linecap:round; stroke-linejoin:round;">
<circle cx="63531.5" cy="44488.2" r="261.102" /> 
<circle cx="62531.5" cy="44488.2" r="261.102" /> 
<circle cx="67669.3" cy="42185" r="261.102" /> 
<circle cx="68669.3" cy="42185" r="261.102" /> 
<circle cx="65208.7" cy="36732.3" r="261.102" /> 
<circle cx="66208.7" cy="36732.3" r="261.102" /> 
<circle cx="60267.7" cy="39212.6" r="261.102" /> 
<circle cx="61267.7" cy="39212.6" r="261.102" /> 
<circle cx="66405.5" cy="44507.9" r="261.102" /> 
<circle cx="65405.5" cy="44507.9" r="261.102" /> 
<circle cx="63728.3" cy="39311" r="261.102" /> 
<circle cx="62728.3" cy="39311" r="261.102" /> 
<circle cx="65208.7" cy="39311" r="261.102" /> 
<circle cx="66208.7" cy="39311" r="261.102" /> 
<circle cx="60267.7" cy="42185" r="261.102" /> 
<circle cx="61267.7" cy="42185" r="261.102" /> 
<circle cx="68669.3" cy="39212.6" r="261.102" /> 
<circle cx="67669.3" cy="39212.6" r="261.102" /> 
<circle cx="65208.7" cy="41889.8" r="261.102" /> 
<circle cx="66208.7" cy="41889.8" r="261.102" /> 
<circle cx="63531.5" cy="36732.3" r="261.102" /> 
<circle cx="62531.5" cy="36732.3" r="261.102" /> 
<circle cx="63728.3" cy="41889.8" r="261.102" /> 
<circle cx="62728.3" cy="41889.8" r="261.102" /> 
<polyline style="fill-rule:evenodd;"
points="65718,45088
65718,45620
65068,45620
65068,45088
65718,45088
" /> 
<polyline style="fill-rule:evenodd;"
points="64143,45088
64143,45620
63494,45620
63494,45088
64143,45088
" /> 
<polyline style="fill-rule:evenodd;"
points="67549,40816
67549,40285
68198,40285
68198,40816
67549,40816
" /> 
<polyline style="fill-rule:evenodd;"
points="69124,40816
69124,40285
69773,40285
69773,40816
69124,40816
" /> 
<polyline style="fill-rule:evenodd;"
points="63454,35974
63454,35442
64104,35442
64104,35974
63454,35974
" /> 
<polyline style="fill-rule:evenodd;"
points="65029,35974
65029,35442
65679,35442
65679,35974
65029,35974
" /> 
<polyline style="fill-rule:evenodd;"
points="59045,40423
59045,39891
59694,39891
59694,40423
59045,40423
" /> 
<polyline style="fill-rule:evenodd;"
points="60620,40423
60620,39891
61269,39891
61269,40423
60620,40423
" /> 
<polyline style="fill-rule:evenodd;"
points="66564,43612
66564,43080
67214,43080
67214,43612
66564,43612
" /> 
<polyline style="fill-rule:evenodd;"
points="68139,43612
68139,43080
68789,43080
68789,43612
68139,43612
" /> 
<polyline style="fill-rule:evenodd;"
points="60009,37962
60009,37431
60659,37431
60659,37962
60009,37962
" /> 
<polyline style="fill-rule:evenodd;"
points="61584,37962
61584,37431
62234,37431
62234,37962
61584,37962
" /> 
<polyline style="fill-rule:evenodd;"
points="64596,40816
64596,40285
65246,40285
65246,40816
64596,40816
" /> 
<polyline style="fill-rule:evenodd;"
points="66171,40816
66171,40285
66820,40285
66820,40816
66171,40816
" /> 
<polyline style="fill-rule:evenodd;"
points="62765,43120
62765,43651
62116,43651
62116,43120
62765,43120
" /> 
<polyline style="fill-rule:evenodd;"
points="61190,43120
61190,43651
60541,43651
60541,43120
61190,43120
" /> 
<polyline style="fill-rule:evenodd;"
points="66505,37962
66505,37431
67155,37431
67155,37962
66505,37962
" /> 
<polyline style="fill-rule:evenodd;"
points="68080,37962
68080,37431
68730,37431
68730,37962
68080,37962
" /> 
<polyline style="fill-rule:evenodd;"
points="63297,43651
63297,43120
63946,43120
63946,43651
63297,43651
" /> 
<polyline style="fill-rule:evenodd;"
points="64872,43651
64872,43120
65521,43120
65521,43651
64872,43651
" /> 
<polyline style="fill-rule:evenodd;"
points="65679,37431
65679,37962
65029,37962
65029,37431
65679,37431
" /> 
<polyline style="fill-rule:evenodd;"
points="64104,37431
64104,37962
63454,37962
63454,37431
64104,37431
" /> 
<polyline style="fill-rule:evenodd;"
points="64202,40285
64202,40816
63553,40816
63553,40285
64202,40285
" /> 
<polyline style="fill-rule:evenodd;"
points="62627,40285
62627,40816
61978,40816
61978,40285
62627,40285
" /> 
</g>
<g style="fill:#000000; fill-opacity:0.0; 
stroke:#000000; stroke-width:137.795; stroke-opacity:1; 
stroke-linecap:round; stroke-linejoin:round;">
<path d="M63531 44488
L63531 45066
" />
<path d="M63531 45066
L63818 45354
" />
<path d="M69192 40649
L69350 40649
" />
<path d="M67708 42035
L69192 40649
" />
<path d="M67708 42224
L67708 42035
" />
<path d="M65248 36496
L65248 35716
" />
<path d="M65248 35716
L65354 35610
" />
<path d="M60228 39074
L60228 39279
" />
<path d="M60228 39263
L60944 40059
" />
<path d="M60228 39074
L60228 39263
" />
<path d="M67519 44685
L68464 43346
" />
<path d="M66444 44685
L67519 44685
" />
<path d="M63582 39173
L61909 37696
" />
<path d="M63688 39173
L63582 39173
" />
<path d="M65248 39173
L65354 39173
" />
</g>
<g style="fill:#000000; fill-opacity:0.0; 
stroke:#000000; stroke-width:100; stroke-opacity:1; 
stroke-linecap:round; stroke-linejoin:round;">
<path d="M65354 39173
L66496 40551
" />
</g>
<g style="fill:#000000; fill-opacity:0.0; 
stroke:#000000; stroke-width:137.795; stroke-opacity:1; 
stroke-linecap:round; stroke-linejoin:round;">
<path d="M60267 42185
L60267 42787
" />
<path d="M60267 42787
L60866 43385
" />
<path d="M68405 38673
L68708 39074
" />
<path d="M68405 37696
L68405 38673
" />
<path d="M65208 41889
L65208 43374
" />
<path d="M65208 43374
L65196 43385
" />
<path d="M64992 43082
L65196 43287
" />
<path d="M63492 36496
L63492 37409
" />
<path d="M63492 37409
L63779 37696
" />
<path d="M62598 40649
L62303 40649
" />
<path d="M63688 41838
L62598 40649
" />
<path d="M63688 41929
L63688 41838
" />
<path d="M67874 40551
L67874 40433
" />
<path d="M67874 40433
L67086 39409
" />
<path d="M67086 39409
L67086 37952
" />
<path d="M67086 37952
L66830 37696
" />
<path d="M67874 40551
L67874 40866
" />
<path d="M67874 40866
L67086 41889
" />
<path d="M67086 41889
L67086 43149
" />
<path d="M67086 43149
L66889 43346
" />
<path d="M63622 43385
L63622 42795
" />
<path d="M64291 40964
L63877 40551
" />
<path d="M64291 42125
L64291 40964
" />
<path d="M63622 42795
L64291 42125
" />
<path d="M59370 40157
L59409 41169
" />
<path d="M59409 41169
L59500 41259
" />
<path d="M59350 38681
L59940 37893
" />
<path d="M59940 37893
L60039 37893
" />
<path d="M59370 40157
L59350 38681
" />
<path d="M67775 40649
L67775 40551
" />
<path d="M66830 37696
L65354 37696
" />
<path d="M66732 37696
L66830 37696
" />
<path d="M63681 35807
L63779 35708
" />
<path d="M63779 35708
L63976 35708
" />
<path d="M64468 36811
L65354 37696
" />
<path d="M64468 35925
L64468 36811
" />
<path d="M63976 35708
L64468 35925
" />
<path d="M62440 43385
L62539 43484
" />
<path d="M63622 43385
L63622 43484
" />
<path d="M63622 43484
L62539 43484
" />
<path d="M64763 45177
L65393 45452
" />
<path d="M64763 44685
L64763 45177
" />
<path d="M63622 43681
L64763 44685
" />
<path d="M63622 43385
L63622 43681
" />
<path d="M67775 40649
L67874 40551
" />
<path d="M65354 37696
L64468 38582
" />
<path d="M64921 40255
L64921 40551
" />
<path d="M64468 39566
L64921 40255
" />
<path d="M64468 38582
L64468 39566
" />
<path d="M63877 40551
L64921 40551
" />
<path d="M60334 37224
L61850 35708
" />
<path d="M61850 35708
L63779 35708
" />
<path d="M60334 37696
L60334 37224
" />
</g>
<g style="fill:#000000; fill-opacity:1.0; 
stroke:#000000; stroke-width:100; stroke-opacity:1; 
stroke-linecap:round; stroke-linejoin:round;">
<polyline style="fill-rule:evenodd;"
points="70268,40551
69834,42732
69253,43601
69253,42273
69243,42043
69175,41879
69076,41848
68740,42185
69076,42521
69175,42490
69253,42273
69253,43601
68598,44582
66748,45818
64566,46252
62868,45914
62868,44895
62531,44558
62460,44629
62460,44488
62123,44151
62025,44182
61946,44399
61957,44629
62025,44794
62123,44825
62460,44488
62460,44629
62194,44895
62225,44994
62442,45072
62673,45062
62837,44994
62868,44895
62868,45914
62385,45818
61852,45462
61852,42273
61841,42043
61773,41879
61675,41848
61338,42185
61675,42521
61773,42490
61852,42273
61852,45462
61604,45296
61604,42592
61267,42255
60930,42592
60961,42691
61178,42769
61409,42759
61573,42691
61604,42592
61604,45296
60535,44582
59299,42732
59123,41847
59137,41847
59872,41847
59829,41891
59750,42081
59749,42287
59828,42477
59974,42623
60011,42639
60011,42787
60011,42787
60027,42869
60030,42885
60086,42968
60284,43167
60284,43757
60313,43826
60366,43879
60435,43908
60509,43908
61297,43908
61366,43879
61419,43826
61447,43757
61447,43683
61447,43013
61419,42944
61366,42891
61297,42863
61222,42863
60706,42863
60524,42681
60524,42639
60560,42624
60706,42478
60731,42418
60761,42490
60860,42521
61197,42185
61191,42179
61262,42108
61267,42114
61604,41777
61573,41678
61356,41600
61126,41610
60992,41666
61053,41600
61132,41410
61085,41309
60550,41309
60550,41317
60450,41317
60450,41309
60442,41309
60442,41209
60450,41209
60450,41201
60550,41201
60550,41209
61085,41209
61132,41109
61053,40919
60881,40733
60764,40679
61375,40679
61444,40651
61497,40598
61526,40529
61526,40454
61526,39785
61509,39745
61573,39718
61604,39620
61267,39283
61262,39288
61191,39218
61197,39212
60860,38875
60761,38906
60733,38984
60706,38919
60561,38773
60371,38694
60165,38694
59974,38773
59829,38918
59750,39109
59749,39315
59828,39505
59974,39651
60164,39730
60303,39730
60363,39797
60363,39860
60363,40529
60391,40598
60444,40651
60449,40653
60449,40674
60349,40627
60118,40733
60071,40783
60059,40753
60006,40700
59937,40672
59862,40672
59820,40672
59870,40651
59922,40598
59951,40529
59951,40454
59951,39785
59922,39716
59870,39663
59801,39635
59726,39635
59619,39635
59608,38765
60017,38219
60765,38219
60834,38190
60887,38137
60916,38068
60916,37994
60916,37324
60887,37255
60834,37202
60765,37174
60747,37174
61956,35965
63198,35965
63198,36080
63226,36149
63279,36202
63348,36231
63388,36231
63238,36293
63092,36438
63067,36499
63037,36426
62939,36395
62868,36466
62868,36324
62837,36226
62620,36147
62389,36158
62225,36226
62194,36324
62531,36661
62868,36324
62868,36466
62602,36732
62939,37069
63037,37038
63065,36960
63092,37025
63235,37168
63235,37247
63226,37255
63198,37324
63198,37399
63198,38068
63226,38137
63279,38190
63348,38219
63423,38219
64210,38219
64279,38190
64332,38137
64361,38068
64361,37994
64361,37324
64332,37255
64279,37202
64210,37174
64135,37174
63817,37174
63824,37171
63970,37025
64049,36835
64049,36629
63970,36439
63825,36293
63674,36231
64210,36231
64211,36230
64211,36811
64211,36811
64228,36892
64231,36909
64286,36992
64772,37478
64772,37915
64286,38401
64231,38484
64228,38500
64211,38582
64211,38582
64211,39125
64167,39018
64022,38872
63831,38793
63625,38793
63567,38817
62490,37867
62490,37324
62486,37314
62673,37306
62837,37238
62868,37139
62531,36802
62460,36873
62460,36732
62123,36395
62025,36426
61946,36643
61957,36873
62025,37038
62123,37069
62460,36732
62460,36873
62194,37139
62205,37174
61478,37174
61409,37202
61356,37255
61327,37324
61327,37399
61327,38068
61356,38137
61409,38190
61478,38219
61553,38219
62113,38219
62694,38731
62586,38736
62422,38804
62391,38903
62728,39240
62733,39234
62804,39305
62799,39311
63135,39647
63234,39616
63262,39539
63289,39603
63434,39749
63624,39828
63830,39828
64021,39750
64167,39604
64211,39496
64211,39566
64216,39590
64216,39615
64226,39639
64231,39665
64244,39685
64253,39707
64470,40037
64421,40057
64399,40078
64378,40057
64309,40028
64234,40028
63446,40028
63377,40057
63325,40110
63296,40179
63296,40253
63296,40923
63325,40992
63377,41045
63446,41073
63521,41073
64034,41073
64034,41463
64022,41451
63831,41372
63625,41371
63613,41376
63065,40778
63065,39718
62728,39381
62657,39452
62657,39311
62320,38974
62222,39005
62143,39222
62154,39452
62222,39616
62320,39647
62657,39311
62657,39452
62391,39718
62422,39817
62639,39895
62869,39885
63034,39817
63065,39718
63065,40778
62884,40581
62884,40179
62856,40110
62803,40057
62734,40028
62659,40028
61872,40028
61852,40036
61852,39301
61841,39071
61773,38906
61675,38875
61604,38946
61604,38804
61573,38706
61356,38627
61126,38638
60961,38706
60930,38804
61267,39141
61604,38804
61604,38946
61338,39212
61675,39549
61773,39518
61852,39301
61852,40036
61803,40057
61750,40110
61721,40179
61721,40253
61721,40923
61750,40992
61803,41045
61872,41073
61946,41073
62639,41073
62868,41323
62817,41305
62586,41315
62422,41383
62391,41482
62728,41819
62733,41813
62804,41884
62799,41889
63135,42226
63234,42195
63262,42118
63289,42182
63434,42328
63624,42407
63646,42407
63440,42613
63384,42697
63381,42713
63365,42795
63365,42795
63365,42863
63190,42863
63121,42891
63069,42944
63065,42954
63065,42297
62728,41960
62657,42031
62657,41889
62320,41552
62222,41583
62143,41800
62154,42031
62222,42195
62320,42226
62657,41889
62657,42031
62391,42297
62422,42395
62639,42474
62869,42463
63034,42395
63065,42297
63065,42954
63040,43013
63040,43088
63040,43227
63022,43227
63022,43013
62993,42944
62941,42891
62872,42863
62797,42863
62009,42863
61940,42891
61888,42944
61859,43013
61859,43088
61859,43757
61888,43826
61940,43879
62009,43908
62084,43908
62516,43908
62389,43914
62225,43982
62194,44080
62531,44417
62868,44080
62837,43982
62633,43908
62872,43908
62941,43879
62993,43826
63022,43757
63022,43740
63040,43740
63040,43757
63069,43826
63121,43879
63190,43908
63265,43908
63491,43908
63562,43970
63428,43970
63238,44048
63092,44194
63067,44254
63037,44182
62939,44151
62602,44488
62939,44825
63037,44794
63065,44716
63092,44781
63237,44926
63257,44934
63237,44982
63237,45057
63237,45726
63265,45795
63318,45848
63387,45876
63462,45876
64249,45876
64318,45848
64371,45795
64400,45726
64400,45651
64400,44982
64371,44913
64318,44860
64249,44831
64175,44831
63920,44831
63970,44781
64049,44591
64049,44398
64507,44801
64507,45177
64516,45223
64524,45270
64526,45272
64526,45275
64553,45314
64578,45355
64580,45356
64582,45358
64621,45385
64660,45412
64812,45478
64812,45726
64840,45795
64893,45848
64962,45876
65037,45876
65824,45876
65893,45848
65946,45795
65975,45726
65975,45651
65975,44982
65946,44913
65893,44860
65837,44837
65911,44813
65939,44736
65966,44800
66111,44946
66302,45025
66508,45025
66698,44947
66703,44941
67519,44941
67541,44937
67563,44938
67589,44927
67617,44922
67636,44909
67656,44902
67677,44882
67701,44866
67713,44848
67729,44833
68409,43868
68895,43868
68964,43840
69017,43787
69046,43718
69046,43643
69046,42974
69017,42905
69006,42894
69006,42592
68669,42255
68332,42592
68363,42691
68580,42769
68810,42759
68975,42691
69006,42592
69006,42894
68964,42852
68895,42824
68820,42824
68033,42824
67964,42852
67911,42905
67883,42974
67883,43049
67883,43718
67884,43722
67386,44428
66923,44428
66923,44405
66844,44214
66699,44069
66508,43990
66302,43989
66112,44068
65966,44214
65941,44274
65911,44201
65813,44170
65742,44241
65742,44100
65711,44001
65494,43923
65263,43933
65099,44001
65068,44100
65405,44437
65742,44100
65742,44241
65476,44507
65481,44513
65411,44584
65405,44578
65399,44584
65329,44513
65334,44507
64997,44170
64899,44201
64827,44399
64175,43825
64203,43757
64203,43683
64203,43013
64174,42944
64122,42891
64053,42863
63978,42863
63916,42863
64472,42307
64528,42224
64528,42224
64548,42125
64548,41073
64564,41073
65352,41073
65421,41045
65474,40992
65502,40923
65502,40848
65502,40179
65474,40110
65421,40057
65352,40028
65277,40028
65079,40028
64858,39693
64914,39749
65105,39828
65311,39828
65501,39750
65513,39738
65914,40222
65914,40253
65914,40923
65943,40992
65995,41045
66065,41073
66139,41073
66927,41073
66996,41045
67048,40992
67077,40923
67077,40848
67077,40179
67048,40110
66996,40057
66927,40028
66852,40028
66793,40028
66793,39399
66782,39169
66714,39005
66616,38974
66545,39044
66545,38903
66514,38804
66297,38726
66067,38736
65902,38804
65871,38903
66208,39240
66545,38903
66545,39044
66279,39311
66616,39647
66714,39616
66793,39399
66793,40028
66371,40028
66256,39889
66350,39885
66514,39817
66545,39718
66208,39381
66203,39387
66132,39316
66137,39311
65801,38974
65702,39005
65674,39082
65647,39018
65502,38872
65312,38793
65106,38793
64915,38871
64769,39017
64725,39125
64725,38689
65194,38219
65785,38219
65854,38190
65907,38137
65935,38068
65935,37994
65935,37953
66249,37953
66249,38068
66277,38137
66330,38190
66399,38219
66474,38219
66829,38219
66829,39409
66836,39442
66838,39476
66846,39491
66849,39507
66868,39535
66883,39565
67314,40126
67292,40179
67292,40253
67292,40923
67321,40992
67373,41045
67403,41057
66883,41733
66868,41763
66849,41791
66846,41807
66838,41823
66836,41856
66829,41889
66829,42824
66793,42824
66793,41978
66782,41748
66714,41583
66616,41552
66545,41623
66545,41482
66514,41383
66297,41305
66067,41315
65902,41383
65871,41482
66208,41819
66545,41482
66545,41623
66279,41889
66616,42226
66714,42195
66793,41978
66793,42824
66545,42824
66545,42297
66208,41960
66137,42031
66137,41889
65801,41552
65702,41583
65674,41661
65647,41596
65502,41451
65312,41372
65106,41371
64915,41450
64769,41596
64690,41786
64690,41992
64769,42182
64914,42328
64951,42343
64951,42833
64893,42845
64867,42863
64765,42863
64696,42891
64643,42944
64615,43013
64615,43088
64615,43757
64643,43826
64696,43879
64765,43908
64840,43908
65627,43908
65696,43879
65749,43826
65778,43757
65778,43683
65778,43013
65749,42944
65696,42891
65627,42863
65553,42863
65465,42863
65465,42343
65501,42328
65647,42183
65672,42123
65702,42195
65801,42226
66137,41889
66137,42031
65871,42297
65902,42395
66119,42474
66350,42463
66514,42395
66545,42297
66545,42824
66458,42824
66389,42852
66336,42905
66308,42974
66308,43049
66308,43718
66336,43787
66389,43840
66458,43868
66533,43868
67320,43868
67389,43840
67442,43787
67471,43718
67471,43643
67471,42974
67442,42905
67389,42852
67343,42833
67343,42591
67375,42623
67565,42702
67771,42702
67962,42624
68108,42478
68133,42418
68163,42490
68261,42521
68598,42185
68593,42179
68663,42108
68669,42114
69006,41777
68975,41678
68758,41600
68540,41610
69114,41073
69879,41073
69948,41045
70001,40992
70030,40923
70030,40848
70030,40179
70001,40110
69948,40057
69879,40028
69805,40028
69187,40028
69187,39110
69108,38919
68962,38773
68772,38694
68743,38694
68662,38587
68662,38219
68836,38219
68905,38190
68958,38137
68987,38068
68987,37994
68987,37324
68958,37255
68905,37202
68836,37174
68761,37174
67974,37174
67905,37202
67852,37255
67824,37324
67824,37399
67824,38068
67852,38137
67905,38190
67974,38219
68049,38219
68148,38219
68148,38673
68155,38705
68157,38737
68164,38753
68168,38771
68186,38798
68200,38827
68252,38896
68230,38918
68205,38979
68175,38906
68076,38875
67740,39212
68076,39549
68175,39518
68203,39441
68230,39505
68375,39651
68565,39730
68771,39730
68962,39651
69108,39506
69186,39316
69187,39110
69187,40028
69017,40028
68948,40057
68895,40110
68867,40179
68867,40253
68867,40602
67726,41667
67581,41667
68038,41073
68305,41073
68374,41045
68426,40992
68455,40923
68455,40848
68455,40179
68426,40110
68374,40057
68305,40028
68230,40028
67886,40028
67704,39791
67810,39786
67975,39718
68006,39620
67669,39283
67663,39288
67593,39218
67598,39212
67593,39207
67663,39136
67669,39141
68006,38804
67975,38706
67758,38627
67527,38638
67363,38706
67343,38770
67343,38178
67383,38137
67412,38068
67412,37994
67412,37324
67383,37255
67330,37202
67261,37174
67187,37174
66793,37174
66793,36821
66782,36590
66714,36426
66616,36395
66545,36466
66545,36324
66514,36226
66297,36147
66067,36158
65902,36226
65871,36324
66208,36661
66545,36324
66545,36466
66279,36732
66616,37069
66714,37038
66793,36821
66793,37174
66534,37174
66545,37139
66208,36802
65871,37139
65902,37238
66119,37316
66255,37310
66249,37324
66249,37399
66249,37440
65935,37440
65935,37324
65907,37255
65854,37202
65785,37174
65710,37174
65494,37174
65501,37171
65647,37025
65672,36965
65702,37038
65801,37069
66137,36732
65801,36395
65702,36426
65674,36503
65647,36439
65504,36295
65504,36231
65785,36231
65854,36202
65907,36149
65935,36080
65935,36005
65935,35336
65907,35267
65854,35214
65785,35186
65710,35186
64923,35186
64854,35214
64801,35267
64772,35336
64772,35411
64772,36080
64801,36149
64854,36202
64923,36231
64991,36231
64991,36261
64915,36293
64769,36438
64725,36546
64725,35925
64715,35878
64707,35832
64706,35829
64705,35826
64679,35787
64653,35747
64651,35746
64650,35743
64610,35717
64571,35690
64361,35597
64361,35336
64332,35267
64279,35214
64210,35186
64135,35186
63348,35186
63279,35214
63226,35267
63198,35336
63198,35411
63198,35451
62133,35451
62385,35283
64566,34849
66748,35283
68598,36519
69834,38369
70268,40551
" /> 
</g>
<g style="fill:#FFFFFF; fill-opacity:1.0; 
stroke:#FFFFFF; stroke-width:137.795; stroke-opacity:1; 
stroke-linecap:round; stroke-linejoin:round;">
<circle cx="59500" cy="41259.8" r="131.102" /> 
<circle cx="60500" cy="41259.8" r="131.102" /> 
<circle cx="63531.5" cy="44488.2" r="91.1024" /> 
<circle cx="62531.5" cy="44488.2" r="91.1024" /> 
<circle cx="67669.3" cy="42185" r="91.1024" /> 
<circle cx="68669.3" cy="42185" r="91.1024" /> 
<circle cx="65208.7" cy="36732.3" r="91.1024" /> 
<circle cx="66208.7" cy="36732.3" r="91.1024" /> 
<circle cx="60267.7" cy="39212.6" r="91.1024" /> 
<circle cx="61267.7" cy="39212.6" r="91.1024" /> 
<circle cx="66405.5" cy="44507.9" r="91.1024" /> 
<circle cx="65405.5" cy="44507.9" r="91.1024" /> 
<circle cx="63728.3" cy="39311" r="91.1024" /> 
<circle cx="62728.3" cy="39311" r="91.1024" /> 
<circle cx="65208.7" cy="39311" r="91.1024" /> 
<circle cx="66208.7" cy="39311" r="91.1024" /> 
<circle cx="60267.7" cy="42185" r="91.1024" /> 
<circle cx="61267.7" cy="42185" r="91.1024" /> 
<circle cx="68669.3" cy="39212.6" r="91.1024" /> 
<circle cx="67669.3" cy="39212.6" r="91.1024" /> 
<circle cx="65208.7" cy="41889.8" r="91.1024" /> 
<circle cx="66208.7" cy="41889.8" r="91.1024" /> 
<circle cx="63531.5" cy="36732.3" r="91.1024" /> 
<circle cx="62531.5" cy="36732.3" r="91.1024" /> 
<circle cx="63728.3" cy="41889.8" r="91.1024" /> 
<circle cx="62728.3" cy="41889.8" r="91.1024" /> 
</g>
<g style="fill:#000000; fill-opacity:1.0; 
stroke:#000000; stroke-width:59.0551; stroke-opacity:1; 
stroke-linecap:round; stroke-linejoin:round;">
</g>
<g style="fill:#000000; fill-opacity:0.0; 
stroke:#000000; stroke-width:59.0551; stroke-opacity:1; 
stroke-linecap:round; stroke-linejoin:round;">
<circle cx="64566.9" cy="40551.2" r="5918.62" /> 
</g> 
</svg>
