<?xml version="1.0" standalone="no"?>
 <!DOCTYPE svg PUBLIC "-//W3C//DTD SVG 1.1//EN" 
 "http://www.w3.org/Graphics/SVG/1.1/DTD/svg11.dtd"> 
<svg xmlns="http://www.w3.org/2000/svg" version="1.1" 
    width="29.7002cm" height="21.0007cm" viewBox="0 0 116930 82680 ">
<title>SVG Picture created as bajaBackLight-brd.svg date 2015/02/24 21:47:52 </title>
  <desc>Picture generated by PCBNEW </desc>
<g style="fill:#000000; fill-opacity:1;stroke:#000000; stroke-opacity:1;
stroke-linecap:round; stroke-linejoin:round; "
 transform="translate(0 0) scale(1 1)">
</g>
<g style="fill:#000000; fill-opacity:0.0; 
stroke:#000000; stroke-width:196.85; stroke-opacity:1; 
stroke-linecap:round; stroke-linejoin:round;">
</g>
<g style="fill:#000000; fill-opacity:1.0; 
stroke:#000000; stroke-width:196.85; stroke-opacity:1; 
stroke-linecap:round; stroke-linejoin:round;">
<polyline style="fill-rule:evenodd;"
points="46707,36746
47190,36746
47190,37229
46707,37229
46707,36746
" /> 
</g>
<g style="fill:#000000; fill-opacity:1.0; 
stroke:#000000; stroke-width:680; stroke-opacity:1; 
stroke-linecap:round; stroke-linejoin:round;">
</g>
<g style="fill:#000000; fill-opacity:0.0; 
stroke:#000000; stroke-width:680; stroke-opacity:1; 
stroke-linecap:round; stroke-linejoin:round;">
<path d="M46948 37988
L46948 37988
" />
</g>
<g style="fill:#000000; fill-opacity:0.0; 
stroke:#000000; stroke-width:196.85; stroke-opacity:1; 
stroke-linecap:round; stroke-linejoin:round;">
</g>
<g style="fill:#000000; fill-opacity:1.0; 
stroke:#000000; stroke-width:196.85; stroke-opacity:1; 
stroke-linecap:round; stroke-linejoin:round;">
<polyline style="fill-rule:evenodd;"
points="68129,38602
67145,38602
67145,37814
68129,37814
68129,38602
" /> 
<polyline style="fill-rule:evenodd;"
points="68129,36909
67145,36909
67145,36122
68129,36122
68129,36909
" /> 
<polyline style="fill-rule:evenodd;"
points="55816,38661
54832,38661
54832,37874
55816,37874
55816,38661
" /> 
<polyline style="fill-rule:evenodd;"
points="55816,36968
54832,36968
54832,36181
55816,36181
55816,36968
" /> 
<polyline style="fill-rule:evenodd;"
points="59429,38602
58444,38602
58444,37814
59429,37814
59429,38602
" /> 
<polyline style="fill-rule:evenodd;"
points="59429,36909
58444,36909
58444,36122
59429,36122
59429,36909
" /> 
<polyline style="fill-rule:evenodd;"
points="52224,38681
51240,38681
51240,37893
52224,37893
52224,38681
" /> 
<polyline style="fill-rule:evenodd;"
points="52224,36988
51240,36988
51240,36200
52224,36200
52224,36988
" /> 
<polyline style="fill-rule:evenodd;"
points="72352,38641
71368,38641
71368,37854
72352,37854
72352,38641
" /> 
<polyline style="fill-rule:evenodd;"
points="72352,36948
71368,36948
71368,36161
72352,36161
72352,36948
" /> 
<polyline style="fill-rule:evenodd;"
points="63671,38641
62687,38641
62687,37854
63671,37854
63671,38641
" /> 
<polyline style="fill-rule:evenodd;"
points="63671,36948
62687,36948
62687,36161
63671,36161
63671,36948
" /> 
<polyline style="fill-rule:evenodd;"
points="69517,35698
69990,35698
69990,36289
69517,36289
69517,35698
" /> 
<polyline style="fill-rule:evenodd;"
points="69517,37273
69990,37273
69990,37864
69517,37864
69517,37273
" /> 
<polyline style="fill-rule:evenodd;"
points="56811,35698
57283,35698
57283,36289
56811,36289
56811,35698
" /> 
<polyline style="fill-rule:evenodd;"
points="56811,37273
57283,37273
57283,37864
56811,37864
56811,37273
" /> 
<polyline style="fill-rule:evenodd;"
points="60846,35718
61318,35718
61318,36309
60846,36309
60846,35718
" /> 
<polyline style="fill-rule:evenodd;"
points="60846,37293
61318,37293
61318,37883
60846,37883
60846,37293
" /> 
<polyline style="fill-rule:evenodd;"
points="53228,35698
53700,35698
53700,36289
53228,36289
53228,35698
" /> 
<polyline style="fill-rule:evenodd;"
points="53228,37273
53700,37273
53700,37864
53228,37864
53228,37273
" /> 
<polyline style="fill-rule:evenodd;"
points="76062,36033
76535,36033
76535,36624
76062,36624
76062,36033
" /> 
<polyline style="fill-rule:evenodd;"
points="76062,37608
76535,37608
76535,38198
76062,38198
76062,37608
" /> 
<polyline style="fill-rule:evenodd;"
points="65177,35698
65649,35698
65649,36289
65177,36289
65177,35698
" /> 
<polyline style="fill-rule:evenodd;"
points="65177,37273
65649,37273
65649,37864
65177,37864
65177,37273
" /> 
</g>
<g style="fill:#000000; fill-opacity:0.0; 
stroke:#000000; stroke-width:196.85; stroke-opacity:1; 
stroke-linecap:round; stroke-linejoin:round;">
<path d="M46948 36988
L46978 36988
" />
<path d="M53208 35738
L53464 35994
" />
<path d="M47440 36988
L48690 35738
" />
<path d="M48690 35738
L53208 35738
" />
<path d="M46948 36988
L47440 36988
" />
<path d="M56732 35679
L57047 35994
" />
<path d="M54192 35994
L54507 35679
" />
<path d="M54507 35679
L56732 35679
" />
<path d="M53464 35994
L54192 35994
" />
<path d="M60757 35688
L61082 36013
" />
<path d="M57588 35688
L60757 35688
" />
<path d="M57283 35994
L57588 35688
" />
<path d="M57047 35994
L57283 35994
" />
<path d="M65127 35708
L65413 35994
" />
<path d="M61702 36013
L62007 35708
" />
<path d="M62007 35708
L65127 35708
" />
<path d="M61082 36013
L61702 36013
" />
<path d="M69468 35708
L69753 35994
" />
<path d="M65925 35994
L66210 35708
" />
<path d="M66210 35708
L69468 35708
" />
<path d="M65413 35994
L65925 35994
" />
<path d="M70452 35994
L70718 35728
" />
<path d="M70718 35728
L75698 35728
" />
<path d="M75698 35728
L76299 36328
" />
<path d="M69753 35994
L70452 35994
" />
<path d="M59025 36387
L59005 36407
" />
<path d="M71978 36299
L71879 36397
" />
<path d="M71879 36397
L71870 36397
" />
<path d="M69734 37539
L69616 37539
" />
<path d="M68277 37568
L67637 38208
" />
<path d="M69753 37568
L68277 37568
" />
<path d="M57076 37637
L57066 37637
" />
<path d="M56023 37568
L55324 38267
" />
<path d="M57047 37568
L56023 37568
" />
<path d="M61082 37588
L60777 37588
" />
<path d="M59557 37588
L58937 38208
" />
<path d="M61082 37588
L59557 37588
" />
<path d="M53444 37559
L53316 37559
" />
<path d="M52450 37568
L51732 38287
" />
<path d="M53464 37568
L52450 37568
" />
<path d="M76338 37933
L76338 37854
" />
<path d="M72342 38730
L71860 38248
" />
<path d="M75777 37903
L74950 38730
" />
<path d="M74950 38730
L72342 38730
" />
<path d="M76299 37903
L75777 37903
" />
<path d="M65374 37549
L65127 37549
" />
<path d="M63858 37568
L63179 38248
" />
<path d="M65413 37568
L63858 37568
" />
</g>
<g style="fill:#000000; fill-opacity:1.0; 
stroke:#000000; stroke-width:100; stroke-opacity:1; 
stroke-linecap:round; stroke-linejoin:round;">
<polyline style="fill-rule:evenodd;"
points="47765,37362
47736,37362
47736,37362
47765,37362
" /> 
<polyline style="fill-rule:evenodd;"
points="47913,35643
47874,37056
47538,37054
47538,36875
47538,36598
47500,36506
47430,36436
47338,36398
47239,36398
47061,36398
46998,36460
46998,36938
47476,36938
47538,36875
47538,37054
47492,37053
47476,37038
46998,37038
46998,37046
46898,37046
46898,37038
46898,36938
46898,36460
46836,36398
46658,36398
46559,36398
46467,36436
46396,36506
46358,36598
46358,36875
46421,36938
46898,36938
46898,37038
46421,37038
46411,37047
46211,37046
46211,35738
46211,35727
46207,35649
46240,35643
47913,35643
" /> 
<polyline style="fill-rule:evenodd;"
points="45757,37421
45757,37421
45757,37391
45757,37421
" /> 
<polyline style="fill-rule:evenodd;"
points="77408,39258
76843,39258
76843,38339
76843,38255
76843,37468
76811,37390
76752,37331
76675,37299
76592,37299
75922,37299
75845,37331
75786,37390
75754,37468
75754,37551
75754,37599
75679,37614
75659,37618
75559,37685
75462,37781
75515,37519
75436,37126
75214,36793
74881,36570
74488,36492
74095,36570
73762,36793
73539,37126
73461,37519
73539,37912
73762,38245
74025,38421
72700,38421
72700,37096
72700,36667
72638,36605
71910,36605
71910,37234
71972,37297
72401,37297
72500,37297
72592,37259
72662,37188
72700,37096
72700,38421
72660,38421
72660,37714
72628,37636
72569,37577
72492,37545
72409,37545
71810,37545
71810,37234
71810,36605
71082,36605
71019,36667
71019,37096
71057,37188
71128,37259
71219,37297
71319,37297
71747,37297
71810,37234
71810,37545
71227,37545
71150,37577
71091,37636
71059,37714
71059,37797
71059,38781
71091,38859
71150,38918
71227,38950
71311,38950
72127,38950
72127,38950
72224,39015
72342,39038
74950,39038
74950,39038
75068,39015
75168,38948
75761,38355
75786,38416
75845,38475
75922,38507
76006,38507
76675,38507
76752,38475
76811,38416
76843,38339
76843,39258
70298,39258
70298,38004
70298,37920
70298,37133
70266,37056
70207,36997
70130,36965
70046,36965
69377,36965
69300,36997
69241,37056
69209,37133
69209,37216
69209,37260
68478,37260
68478,37057
68478,36628
68415,36565
67687,36565
67687,37195
67750,37257
68178,37257
68278,37257
68369,37219
68440,37149
68478,37057
68478,37260
68277,37260
68159,37283
68059,37350
67903,37506
67587,37506
67587,37195
67587,36565
66859,36565
66797,36628
66797,37057
66835,37149
66905,37219
66997,37257
67096,37257
67525,37257
67587,37195
67587,37506
67005,37506
66928,37538
66869,37597
66837,37674
66837,37758
66837,38742
66869,38819
66928,38878
67005,38910
67089,38910
68270,38910
68347,38878
68406,38819
68438,38742
68438,38659
68438,37877
69209,37877
69209,38004
69241,38081
69300,38140
69377,38172
69461,38172
70130,38172
70207,38140
70266,38081
70298,38004
70298,39258
65958,39258
65958,38004
65958,37920
65958,37133
65926,37056
65866,36997
65789,36965
65706,36965
65036,36965
64959,36997
64900,37056
64868,37133
64868,37216
64868,37260
63908,37260
63911,37259
63981,37188
64019,37096
64019,36667
63957,36605
63229,36605
63229,37234
63291,37297
63719,37297
63720,37297
63640,37350
63445,37545
63129,37545
63129,37234
63129,36605
62401,36605
62338,36667
62338,37096
62376,37188
62446,37259
62538,37297
62638,37297
63066,37297
63129,37234
63129,37545
62546,37545
62469,37577
62410,37636
62378,37714
62378,37797
62378,38781
62410,38859
62469,38918
62546,38950
62630,38950
63811,38950
63888,38918
63947,38859
63979,38781
63979,38698
63979,37883
63986,37877
64868,37877
64868,38004
64900,38081
64959,38140
65036,38172
65120,38172
65789,38172
65866,38140
65926,38081
65958,38004
65958,39258
61627,39258
61627,38024
61627,37940
61627,37153
61595,37075
61536,37016
61459,36984
61375,36984
60706,36984
60629,37016
60570,37075
60538,37153
60538,37236
60538,37280
59777,37280
59777,37057
59777,36628
59715,36565
58987,36565
58987,37195
59049,37257
59477,37257
59577,37257
59669,37219
59739,37149
59777,37057
59777,37280
59557,37280
59439,37303
59338,37370
59202,37506
58887,37506
58887,37195
58887,36565
58158,36565
58096,36628
58096,37057
58134,37149
58204,37219
58296,37257
58396,37257
58824,37257
58887,37195
58887,37506
58304,37506
58227,37538
58168,37597
58136,37674
58136,37758
58136,38742
58168,38819
58227,38878
58304,38910
58388,38910
59569,38910
59646,38878
59705,38819
59737,38742
59737,38659
59737,37897
60538,37897
60538,38024
60570,38101
60629,38160
60706,38192
60789,38192
61459,38192
61536,38160
61595,38101
61627,38024
61627,39258
57591,39258
57591,38004
57591,37920
57591,37133
57559,37056
57500,36997
57423,36965
57340,36965
56670,36965
56593,36997
56534,37056
56502,37133
56502,37216
56502,37260
56075,37260
56127,37208
56165,37116
56165,36687
56102,36624
55374,36624
55374,37254
55437,37316
55856,37316
55805,37350
55590,37565
55274,37565
55274,37254
55274,36624
54546,36624
54484,36687
54484,37116
54522,37208
54592,37278
54684,37316
54783,37316
55212,37316
55274,37254
55274,37565
54692,37565
54615,37597
54556,37656
54524,37733
54524,37817
54524,38801
54556,38878
54615,38937
54692,38969
54776,38969
55957,38969
56034,38937
56093,38878
56125,38801
56125,38718
56125,37903
56151,37877
56502,37877
56502,38004
56534,38081
56593,38140
56670,38172
56754,38172
57423,38172
57500,38140
57559,38081
57591,38004
57591,39258
54009,39258
54009,38004
54009,37920
54009,37133
53977,37056
53918,36997
53840,36965
53757,36965
53088,36965
53010,36997
52951,37056
52919,37133
52919,37216
52919,37260
52502,37260
52534,37228
52572,37136
52572,36706
52510,36644
51782,36644
51782,37274
51844,37336
52253,37336
52232,37350
51998,37585
51682,37585
51682,37274
51682,36644
50954,36644
50891,36706
50891,37136
50929,37228
51000,37298
51092,37336
51191,37336
51619,37336
51682,37274
51682,37585
51099,37585
51022,37617
50963,37676
50931,37753
50931,37837
50931,38821
50963,38898
51022,38957
51099,38989
51183,38989
52364,38989
52441,38957
52500,38898
52532,38821
52532,38737
52532,37923
52578,37877
52919,37877
52919,38004
52951,38081
53010,38140
53088,38172
53171,38172
53840,38172
53918,38140
53977,38081
54009,38004
54009,39258
47521,39258
47521,38129
47474,38038
46998,38038
46998,38513
47090,38561
47253,38493
47423,38337
47521,38129
47521,39258
46898,39258
46898,38513
46898,38038
46423,38038
46375,38129
46473,38337
46643,38493
46807,38561
46898,38513
46898,39258
46194,39258
46194,37468
46451,37467
46489,37506
46567,37538
46583,37538
46473,37638
46375,37846
46423,37938
46898,37938
46898,37930
46998,37930
46998,37938
47474,37938
47521,37846
47423,37638
47314,37538
47330,37538
47407,37506
47451,37462
47570,37461
48077,37220
48011,37549
48095,37971
48334,38328
48692,38567
49114,38651
49536,38567
49893,38328
50132,37971
50216,37549
50132,37127
49893,36769
49536,36530
49114,36446
48692,36530
48334,36769
48211,36954
48214,36650
48818,36046
50894,36046
50891,36052
50891,36481
50954,36544
51682,36544
51682,36536
51782,36536
51782,36544
52510,36544
52572,36481
52572,36052
52570,36046
52919,36046
52919,36429
52951,36506
53010,36565
53088,36597
53171,36597
53840,36597
53918,36565
53977,36506
54009,36429
54009,36346
54009,36302
54192,36302
54192,36302
54310,36279
54411,36212
54484,36138
54484,36462
54546,36524
55274,36524
55274,36516
55374,36516
55374,36524
56102,36524
56165,36462
56165,36032
56146,35987
56502,35987
56502,36429
56534,36506
56593,36565
56670,36597
56754,36597
57423,36597
57500,36565
57559,36506
57591,36429
57591,36346
57591,36121
57716,35997
58096,35997
58096,36403
58158,36465
58887,36465
58887,36457
58987,36457
58987,36465
59715,36465
59777,36403
59777,35997
60538,35997
60538,36449
60570,36526
60629,36585
60706,36617
60789,36617
61459,36617
61536,36585
61595,36526
61627,36449
61627,36365
61627,36322
61702,36322
61702,36322
61820,36298
61920,36231
62135,36017
62338,36017
62338,36442
62401,36505
63129,36505
63129,36497
63229,36497
63229,36505
63957,36505
64019,36442
64019,36017
64868,36017
64868,36429
64900,36506
64959,36565
65036,36597
65120,36597
65789,36597
65866,36565
65926,36506
65958,36429
65958,36346
65958,36295
66043,36279
66143,36212
66338,36017
66797,36017
66797,36403
66859,36465
67587,36465
67587,36457
67687,36457
67687,36465
68415,36465
68478,36403
68478,36017
69209,36017
69209,36429
69241,36506
69300,36565
69377,36597
69461,36597
70130,36597
70207,36565
70266,36506
70298,36429
70298,36346
70298,36302
70452,36302
70452,36302
70570,36279
70670,36212
70846,36036
71019,36036
71019,36442
71082,36505
71810,36505
71810,36497
71910,36497
71910,36505
72638,36505
72700,36442
72700,36036
75571,36036
75754,36220
75754,36764
75786,36841
75845,36900
75922,36932
76006,36932
76675,36932
76752,36900
76811,36841
76843,36764
76843,36680
76843,35893
76811,35816
76752,35757
76675,35725
76592,35725
76131,35725
76049,35643
77408,35643
77408,39258
" /> 
</g>
<g style="fill:#FFFFFF; fill-opacity:1.0; 
stroke:#FFFFFF; stroke-width:196.85; stroke-opacity:1; 
stroke-linecap:round; stroke-linejoin:round;">
<circle cx="46948.8" cy="36988.2" r="101.575" /> 
<circle cx="46948.8" cy="37988.2" r="101.575" /> 
</g>
<g style="fill:#000000; fill-opacity:1.0; 
stroke:#000000; stroke-width:59.0551; stroke-opacity:1; 
stroke-linecap:round; stroke-linejoin:round;">
</g>
<g style="fill:#000000; fill-opacity:0.0; 
stroke:#000000; stroke-width:59.0551; stroke-opacity:1; 
stroke-linecap:round; stroke-linejoin:round;">
<circle cx="74488.2" cy="37519.7" r="787.402" /> 
<circle cx="49114.2" cy="37549.2" r="862.836" /> 
<path d="M45954 35413
L46190 35413
" />
<path d="M45954 36919
L45954 35413
" />
<path d="M45954 39498
L45954 36919
" />
<path d="M77647 39498
L45954 39498
" />
<path d="M77647 35403
L77647 39498
" />
<path d="M46102 35403
L77647 35403
" />
</g> 
</svg>
