<?xml version="1.0" standalone="no"?>
 <!DOCTYPE svg PUBLIC "-//W3C//DTD SVG 1.1//EN" 
 "http://www.w3.org/Graphics/SVG/1.1/DTD/svg11.dtd"> 
<svg xmlns="http://www.w3.org/2000/svg" version="1.1" 
    width="6.43382cm" height="4.9149cm" viewBox="0 0 25330 19350 ">
<title>SVG Picture created as bajaController-B_Cu.svg date 2015/03/25 22:59:40 </title>
  <desc>Picture generated by PCBNEW </desc>
<g style="fill:#000000; fill-opacity:1;stroke:#000000; stroke-opacity:1;
stroke-linecap:round; stroke-linejoin:round; "
 transform="translate(0 0) scale(1 1)">
</g>
<g style="fill:#000000; fill-opacity:0.0; 
stroke:#000000; stroke-width:59.0551; stroke-opacity:1; 
stroke-linecap:round; stroke-linejoin:round;">
<path d="M980 3887
L980 17706
" />
<path d="M2909 3887
L980 3887
" />
<path d="M2909 29
L2909 3887
" />
<path d="M23776 29
L2909 29
" />
<path d="M23776 9045
L23776 29
" />
<path d="M8894 9045
L23776 9045
" />
<path d="M8894 17706
L8894 9045
" />
<path d="M980 17706
L8894 17706
" />
</g>
<g style="fill:#000000; fill-opacity:0.0; 
stroke:#000000; stroke-width:196.85; stroke-opacity:1; 
stroke-linecap:round; stroke-linejoin:round;">
</g>
<g style="fill:#000000; fill-opacity:1.0; 
stroke:#000000; stroke-width:196.85; stroke-opacity:1; 
stroke-linecap:round; stroke-linejoin:round;">
<polyline style="fill-rule:evenodd;"
points="23323,8072
23323,8505
22732,8505
22732,8072
23323,8072
" /> 
<polyline style="fill-rule:evenodd;"
points="21748,8072
21748,8505
21158,8505
21158,8072
21748,8072
" /> 
<polyline style="fill-rule:evenodd;"
points="23323,6694
23323,7127
22732,7127
22732,6694
23323,6694
" /> 
<polyline style="fill-rule:evenodd;"
points="21748,6694
21748,7127
21158,7127
21158,6694
21748,6694
" /> 
<circle cx="7437.55" cy="1076.77" r="176.575" /> 
<circle cx="7437.55" cy="3076.77" r="176.575" /> 
<circle cx="8303.69" cy="1076.77" r="176.575" /> 
<circle cx="8303.69" cy="3076.77" r="176.575" /> 
<circle cx="5862.75" cy="15041.3" r="295.276" /> 
<circle cx="5862.75" cy="17041.3" r="295.276" /> 
<circle cx="7693.46" cy="5474.41" r="295.276" /> 
<circle cx="7693.46" cy="7474.41" r="295.276" /> 
</g>
<g style="fill:#000000; fill-opacity:1.0; 
stroke:#000000; stroke-width:620; stroke-opacity:1; 
stroke-linecap:round; stroke-linejoin:round;">
</g>
<g style="fill:#000000; fill-opacity:0.0; 
stroke:#000000; stroke-width:620; stroke-opacity:1; 
stroke-linecap:round; stroke-linejoin:round;">
<path d="M10717 3830
L10717 4110
" />
<path d="M11717 3830
L11717 4110
" />
<path d="M12717 3830
L12717 4110
" />
<path d="M13717 3830
L13717 4110
" />
<path d="M14717 3830
L14717 4110
" />
<path d="M15717 3830
L15717 4110
" />
<path d="M16717 3830
L16717 4110
" />
<path d="M17717 3830
L17717 4110
" />
<path d="M18717 3830
L18717 4110
" />
<path d="M19717 3830
L19717 4110
" />
<path d="M20717 3830
L20717 4110
" />
<path d="M21717 3830
L21717 4110
" />
<path d="M22717 3830
L22717 4110
" />
</g>
<g style="fill:#000000; fill-opacity:0.0; 
stroke:#000000; stroke-width:196.85; stroke-opacity:1; 
stroke-linecap:round; stroke-linejoin:round;">
</g>
<g style="fill:#000000; fill-opacity:1.0; 
stroke:#000000; stroke-width:196.85; stroke-opacity:1; 
stroke-linecap:round; stroke-linejoin:round;">
<polyline style="fill-rule:evenodd;"
points="9505,4322
9505,3618
9928,3618
9928,4322
9505,4322
" /> 
</g>
<g style="fill:#000000; fill-opacity:1.0; 
stroke:#000000; stroke-width:620; stroke-opacity:1; 
stroke-linecap:round; stroke-linejoin:round;">
</g>
<g style="fill:#000000; fill-opacity:0.0; 
stroke:#000000; stroke-width:620; stroke-opacity:1; 
stroke-linecap:round; stroke-linejoin:round;">
<path d="M22717 830
L22717 1110
" />
<path d="M21717 830
L21717 1110
" />
<path d="M20717 830
L20717 1110
" />
<path d="M19717 830
L19717 1110
" />
<path d="M18717 830
L18717 1110
" />
<path d="M17717 830
L17717 1110
" />
<path d="M16717 830
L16717 1110
" />
<path d="M15717 830
L15717 1110
" />
<path d="M14717 830
L14717 1110
" />
<path d="M13717 830
L13717 1110
" />
<path d="M12717 830
L12717 1110
" />
<path d="M11717 830
L11717 1110
" />
<path d="M10717 830
L10717 1110
" />
<path d="M9717 830
L9717 1110
" />
</g>
<g style="fill:#000000; fill-opacity:0.0; 
stroke:#000000; stroke-width:196.85; stroke-opacity:1; 
stroke-linecap:round; stroke-linejoin:round;">
</g>
<g style="fill:#000000; fill-opacity:1.0; 
stroke:#000000; stroke-width:196.85; stroke-opacity:1; 
stroke-linecap:round; stroke-linejoin:round;">
<polyline style="fill-rule:evenodd;"
points="8368,16705
8368,17188
7884,17188
7884,16705
8368,16705
" /> 
</g>
<g style="fill:#000000; fill-opacity:1.0; 
stroke:#000000; stroke-width:787.402; stroke-opacity:1; 
stroke-linecap:round; stroke-linejoin:round;">
</g>
<g style="fill:#000000; fill-opacity:0.0; 
stroke:#000000; stroke-width:787.402; stroke-opacity:1; 
stroke-linecap:round; stroke-linejoin:round;">
<path d="M7126 16946
L7126 16946
" />
<path d="M8126 15946
L8126 15946
" />
<path d="M7126 15946
L7126 15946
" />
<path d="M8126 14946
L8126 14946
" />
<path d="M7126 14946
L7126 14946
" />
</g>
<g style="fill:#000000; fill-opacity:0.0; 
stroke:#000000; stroke-width:196.85; stroke-opacity:1; 
stroke-linecap:round; stroke-linejoin:round;">
</g>
<g style="fill:#000000; fill-opacity:1.0; 
stroke:#000000; stroke-width:196.85; stroke-opacity:1; 
stroke-linecap:round; stroke-linejoin:round;">
<polyline style="fill-rule:evenodd;"
points="22513,5267
23117,5267
23117,5870
22513,5870
22513,5267
" /> 
</g>
<g style="fill:#000000; fill-opacity:1.0; 
stroke:#000000; stroke-width:800; stroke-opacity:1; 
stroke-linecap:round; stroke-linejoin:round;">
</g>
<g style="fill:#000000; fill-opacity:0.0; 
stroke:#000000; stroke-width:800; stroke-opacity:1; 
stroke-linecap:round; stroke-linejoin:round;">
<path d="M21815 5568
L21815 5568
" />
</g>
<g style="fill:#000000; fill-opacity:0.0; 
stroke:#000000; stroke-width:196.85; stroke-opacity:1; 
stroke-linecap:round; stroke-linejoin:round;">
</g>
<g style="fill:#000000; fill-opacity:1.0; 
stroke:#000000; stroke-width:196.85; stroke-opacity:1; 
stroke-linecap:round; stroke-linejoin:round;">
<polyline style="fill-rule:evenodd;"
points="3537,10272
3054,10272
3054,9668
3537,9668
3537,10272
" /> 
</g>
<g style="fill:#000000; fill-opacity:1.0; 
stroke:#000000; stroke-width:680; stroke-opacity:1; 
stroke-linecap:round; stroke-linejoin:round;">
</g>
<g style="fill:#000000; fill-opacity:0.0; 
stroke:#000000; stroke-width:680; stroke-opacity:1; 
stroke-linecap:round; stroke-linejoin:round;">
<path d="M4295 10030
L4295 9910
" />
<path d="M5295 10030
L5295 9910
" />
<path d="M6295 10030
L6295 9910
" />
</g>
<g style="fill:#000000; fill-opacity:0.0; 
stroke:#000000; stroke-width:196.85; stroke-opacity:1; 
stroke-linecap:round; stroke-linejoin:round;">
</g>
<g style="fill:#000000; fill-opacity:1.0; 
stroke:#000000; stroke-width:196.85; stroke-opacity:1; 
stroke-linecap:round; stroke-linejoin:round;">
<polyline style="fill-rule:evenodd;"
points="3509,8531
3026,8531
3026,7928
3509,7928
3509,8531
" /> 
</g>
<g style="fill:#000000; fill-opacity:1.0; 
stroke:#000000; stroke-width:680; stroke-opacity:1; 
stroke-linecap:round; stroke-linejoin:round;">
</g>
<g style="fill:#000000; fill-opacity:0.0; 
stroke:#000000; stroke-width:680; stroke-opacity:1; 
stroke-linecap:round; stroke-linejoin:round;">
<path d="M4268 8290
L4268 8170
" />
<path d="M5268 8290
L5268 8170
" />
<path d="M6268 8290
L6268 8170
" />
</g>
<g style="fill:#000000; fill-opacity:0.0; 
stroke:#000000; stroke-width:196.85; stroke-opacity:1; 
stroke-linecap:round; stroke-linejoin:round;">
</g>
<g style="fill:#000000; fill-opacity:1.0; 
stroke:#000000; stroke-width:196.85; stroke-opacity:1; 
stroke-linecap:round; stroke-linejoin:round;">
<polyline style="fill-rule:evenodd;"
points="18069,7331
18069,6727
18672,6727
18672,7331
18069,7331
" /> 
</g>
<g style="fill:#000000; fill-opacity:1.0; 
stroke:#000000; stroke-width:800; stroke-opacity:1; 
stroke-linecap:round; stroke-linejoin:round;">
</g>
<g style="fill:#000000; fill-opacity:0.0; 
stroke:#000000; stroke-width:800; stroke-opacity:1; 
stroke-linecap:round; stroke-linejoin:round;">
<path d="M18370 8029
L18370 8029
" />
</g>
<g style="fill:#000000; fill-opacity:0.0; 
stroke:#000000; stroke-width:196.85; stroke-opacity:1; 
stroke-linecap:round; stroke-linejoin:round;">
</g>
<g style="fill:#000000; fill-opacity:1.0; 
stroke:#000000; stroke-width:196.85; stroke-opacity:1; 
stroke-linecap:round; stroke-linejoin:round;">
<polyline style="fill-rule:evenodd;"
points="2012,5875
2012,6309
1579,6309
1579,5875
2012,5875
" /> 
<circle cx="2795.82" cy="6092.52" r="295.276" /> 
<circle cx="2795.82" cy="5092.52" r="295.276" /> 
<polyline style="fill-rule:evenodd;"
points="4831,5962
4831,6395
4398,6395
4398,5962
4831,5962
" /> 
<circle cx="5614.72" cy="6179.13" r="295.276" /> 
<circle cx="5614.72" cy="5179.13" r="295.276" /> 
<polyline style="fill-rule:evenodd;"
points="4591,14683
4591,15155
4000,15155
4000,14683
4591,14683
" /> 
<polyline style="fill-rule:evenodd;"
points="3016,14683
3016,15155
2425,15155
2425,14683
3016,14683
" /> 
<polyline style="fill-rule:evenodd;"
points="13591,2143
13591,2616
13000,2616
13000,2143
13591,2143
" /> 
<polyline style="fill-rule:evenodd;"
points="12016,2143
12016,2616
11425,2616
11425,2143
12016,2143
" /> 
<polyline style="fill-rule:evenodd;"
points="1409,7179
1882,7179
1882,7769
1409,7769
1409,7179
" /> 
<polyline style="fill-rule:evenodd;"
points="1409,8753
1882,8753
1882,9344
1409,9344
1409,8753
" /> 
<polyline style="fill-rule:evenodd;"
points="16980,2084
16980,2557
16390,2557
16390,2084
16980,2084
" /> 
<polyline style="fill-rule:evenodd;"
points="15406,2084
15406,2557
14815,2557
14815,2084
15406,2084
" /> 
<polyline style="fill-rule:evenodd;"
points="8205,2391
8205,1919
8795,1919
8795,2391
8205,2391
" /> 
<polyline style="fill-rule:evenodd;"
points="9780,2391
9780,1919
10370,1919
10370,2391
9780,2391
" /> 
<polyline style="fill-rule:evenodd;"
points="6236,1879
6236,2352
5646,2352
5646,1879
6236,1879
" /> 
<polyline style="fill-rule:evenodd;"
points="4661,1879
4661,2352
4071,2352
4071,1879
4661,1879
" /> 
<polyline style="fill-rule:evenodd;"
points="1843,12364
1370,12364
1370,11773
1843,11773
1843,12364
" /> 
<polyline style="fill-rule:evenodd;"
points="1843,10789
1370,10789
1370,10198
1843,10198
1843,10789
" /> 
<circle cx="7039.91" cy="12836.6" r="295.276" /> 
<circle cx="8020.23" cy="11852.4" r="295.276" /> 
<circle cx="8020.23" cy="13816.9" r="295.276" /> 
</g>
<g style="fill:#000000; fill-opacity:1.0; 
stroke:#000000; stroke-width:800; stroke-opacity:1; 
stroke-linecap:round; stroke-linejoin:round;">
</g>
<g style="fill:#000000; fill-opacity:0.0; 
stroke:#000000; stroke-width:800; stroke-opacity:1; 
stroke-linecap:round; stroke-linejoin:round;">
<path d="M3177 16697
L3177 16897
" />
<path d="M4177 16697
L4177 16897
" />
<path d="M2177 16697
L2177 16897
" />
</g>
<g style="fill:#000000; fill-opacity:0.0; 
stroke:#000000; stroke-width:196.85; stroke-opacity:1; 
stroke-linecap:round; stroke-linejoin:round;">
</g>
<g style="fill:#000000; fill-opacity:1.0; 
stroke:#000000; stroke-width:196.85; stroke-opacity:1; 
stroke-linecap:round; stroke-linejoin:round;">
<polyline style="fill-rule:evenodd;"
points="3304,4302
3304,3599
3727,3599
3727,4302
3304,4302
" /> 
</g>
<g style="fill:#000000; fill-opacity:1.0; 
stroke:#000000; stroke-width:620; stroke-opacity:1; 
stroke-linecap:round; stroke-linejoin:round;">
</g>
<g style="fill:#000000; fill-opacity:0.0; 
stroke:#000000; stroke-width:620; stroke-opacity:1; 
stroke-linecap:round; stroke-linejoin:round;">
<path d="M4516 3810
L4516 4090
" />
<path d="M5516 3810
L5516 4090
" />
<path d="M6516 3810
L6516 4090
" />
<path d="M6516 810
L6516 1090
" />
<path d="M5516 810
L5516 1090
" />
<path d="M4516 810
L4516 1090
" />
<path d="M3516 810
L3516 1090
" />
</g>
<g style="fill:#000000; fill-opacity:0.0; 
stroke:#000000; stroke-width:196.85; stroke-opacity:1; 
stroke-linecap:round; stroke-linejoin:round;">
</g>
<g style="fill:#000000; fill-opacity:1.0; 
stroke:#000000; stroke-width:196.85; stroke-opacity:1; 
stroke-linecap:round; stroke-linejoin:round;">
<polyline style="fill-rule:evenodd;"
points="16802,4953
16802,5656
16379,5656
16379,4953
16802,4953
" /> 
</g>
<g style="fill:#000000; fill-opacity:1.0; 
stroke:#000000; stroke-width:620; stroke-opacity:1; 
stroke-linecap:round; stroke-linejoin:round;">
</g>
<g style="fill:#000000; fill-opacity:0.0; 
stroke:#000000; stroke-width:620; stroke-opacity:1; 
stroke-linecap:round; stroke-linejoin:round;">
<path d="M15591 5445
L15591 5165
" />
<path d="M14591 5445
L14591 5165
" />
<path d="M13591 5445
L13591 5165
" />
<path d="M12591 5445
L12591 5165
" />
<path d="M11591 5445
L11591 5165
" />
<path d="M10591 5445
L10591 5165
" />
<path d="M9591 5445
L9591 5165
" />
<path d="M9591 8445
L9591 8165
" />
<path d="M10591 8445
L10591 8165
" />
<path d="M11591 8445
L11591 8165
" />
<path d="M12591 8445
L12591 8165
" />
<path d="M13591 8445
L13591 8165
" />
<path d="M14591 8445
L14591 8165
" />
<path d="M15591 8445
L15591 8165
" />
<path d="M16591 8445
L16591 8165
" />
</g>
<g style="fill:#000000; fill-opacity:0.0; 
stroke:#000000; stroke-width:196.85; stroke-opacity:1; 
stroke-linecap:round; stroke-linejoin:round;">
</g>
<g style="fill:#000000; fill-opacity:1.0; 
stroke:#000000; stroke-width:196.85; stroke-opacity:1; 
stroke-linecap:round; stroke-linejoin:round;">
<circle cx="20067.5" cy="7738.56" r="295.276" /> 
<circle cx="20067.5" cy="5816.56" r="295.276" /> 
<polyline style="fill-rule:evenodd;"
points="2579,14163
2579,13730
3012,13730
3012,14163
2579,14163
" /> 
<circle cx="3795.82" cy="13946.9" r="255.906" /> 
<polyline style="fill-rule:evenodd;"
points="2555,12041
2555,11529
3067,11529
3067,12041
2555,12041
" /> 
<circle cx="3811.57" cy="11785.4" r="255.906" /> 
</g>
<g style="fill:#000000; fill-opacity:0.0; 
stroke:#000000; stroke-width:196.85; stroke-opacity:1; 
stroke-linecap:round; stroke-linejoin:round;">
<path d="M7126 15946
L8126 15946
" />
<path d="M5839 15946
L7126 15946
" />
<path d="M4988 16797
L5839 15946
" />
<path d="M4177 16797
L4988 16797
" />
<path d="M3492 17517
L1870 17517
" />
<path d="M1870 17517
L1390 16974
" />
<path d="M1390 16974
L1390 14431
" />
<path d="M1390 14431
L1874 13946
" />
<path d="M1874 13946
L2795 13946
" />
<path d="M4150 16797
L3492 17517
" />
</g>
<g style="fill:#000000; fill-opacity:0.0; 
stroke:#000000; stroke-width:100; stroke-opacity:1; 
stroke-linecap:round; stroke-linejoin:round;">
<path d="M4177 16797
L4150 16797
" />
<path d="M9591 5305
L9504 5305
" />
<path d="M7437 3076
L8303 3076
" />
<path d="M15587 1100
L15717 970
" />
<path d="M23028 6911
L23028 6714
" />
<path d="M3728 13879
L3795 13946
" />
</g>
<g style="fill:#000000; fill-opacity:0.0; 
stroke:#000000; stroke-width:196.85; stroke-opacity:1; 
stroke-linecap:round; stroke-linejoin:round;">
<path d="M3811 11785
L3728 13879
" />
<path d="M8126 16946
L7126 16946
" />
<path d="M8776 12383
L8020 11852
" />
<path d="M8776 16293
L8776 12383
" />
<path d="M8126 16856
L8776 16293
" />
</g>
<g style="fill:#000000; fill-opacity:0.0; 
stroke:#000000; stroke-width:100; stroke-opacity:1; 
stroke-linecap:round; stroke-linejoin:round;">
<path d="M8126 16946
L8126 16856
" />
<path d="M23028 6911
L22866 6750
" />
</g>
<g style="fill:#000000; fill-opacity:0.0; 
stroke:#000000; stroke-width:196.85; stroke-opacity:1; 
stroke-linecap:round; stroke-linejoin:round;">
<path d="M23028 8289
L23028 6911
" />
<path d="M21815 5990
L21815 5568
" />
<path d="M22736 6911
L21815 5990
" />
</g>
<g style="fill:#000000; fill-opacity:0.0; 
stroke:#000000; stroke-width:100; stroke-opacity:1; 
stroke-linecap:round; stroke-linejoin:round;">
<path d="M23028 6911
L22736 6911
" />
<path d="M5957 16946
L5862 17041
" />
</g>
<g style="fill:#000000; fill-opacity:0.0; 
stroke:#000000; stroke-width:196.85; stroke-opacity:1; 
stroke-linecap:round; stroke-linejoin:round;">
<path d="M7126 16946
L5957 16946
" />
</g>
<g style="fill:#000000; fill-opacity:0.0; 
stroke:#000000; stroke-width:100; stroke-opacity:1; 
stroke-linecap:round; stroke-linejoin:round;">
<path d="M7953 11785
L8020 11852
" />
</g>
<g style="fill:#000000; fill-opacity:0.0; 
stroke:#000000; stroke-width:196.85; stroke-opacity:1; 
stroke-linecap:round; stroke-linejoin:round;">
<path d="M3811 11785
L7953 11785
" />
</g>
<g style="fill:#000000; fill-opacity:0.0; 
stroke:#000000; stroke-width:100; stroke-opacity:1; 
stroke-linecap:round; stroke-linejoin:round;">
<path d="M5339 3076
L7437 3076
" />
<path d="M5004 3411
L5339 3076
" />
<path d="M5004 4356
L5004 3411
" />
<path d="M4650 4710
L5004 4356
" />
<path d="M4453 4710
L4650 4710
" />
<path d="M3693 3950
L4453 4710
" />
<path d="M3516 3950
L3693 3950
" />
</g>
<g style="fill:#000000; fill-opacity:0.0; 
stroke:#000000; stroke-width:196.85; stroke-opacity:1; 
stroke-linecap:round; stroke-linejoin:round;">
<path d="M8303 4017
L9591 5305
" />
<path d="M8303 3076
L8303 4017
" />
</g>
<g style="fill:#000000; fill-opacity:0.0; 
stroke:#000000; stroke-width:100; stroke-opacity:1; 
stroke-linecap:round; stroke-linejoin:round;">
<path d="M22228 5155
L21815 5568
" />
<path d="M22228 3238
L22228 5155
" />
<path d="M21776 2785
L22228 3238
" />
<path d="M17260 2785
L21776 2785
" />
<path d="M16717 3328
L17260 2785
" />
<path d="M16717 3970
L16717 3328
" />
<path d="M15717 1856
L16016 2155
" />
<path d="M16016 2155
L16016 3269
" />
<path d="M16016 3269
L16717 3970
" />
<path d="M15717 970
L15717 1856
" />
<path d="M13295 2379
L13295 2407
" />
</g>
<g style="fill:#000000; fill-opacity:0.0; 
stroke:#000000; stroke-width:196.85; stroke-opacity:1; 
stroke-linecap:round; stroke-linejoin:round;">
<path d="M13295 2407
L13929 3041
" />
<path d="M15177 3041
L15717 3580
" />
<path d="M13929 3041
L15177 3041
" />
</g>
<g style="fill:#000000; fill-opacity:0.0; 
stroke:#000000; stroke-width:100; stroke-opacity:1; 
stroke-linecap:round; stroke-linejoin:round;">
<path d="M15717 3580
L15717 3970
" />
<path d="M13295 2379
L13295 2242
" />
<path d="M13591 2084
L13295 2379
" />
<path d="M13295 2379
L13295 2458
" />
<path d="M4295 9970
L4295 9946
" />
<path d="M18370 7305
L18370 7029
" />
<path d="M16685 2320
L16331 2320
" />
<path d="M4268 8230
L4268 8253
" />
<path d="M4268 8230
L4268 8391
" />
<path d="M3177 16797
L3492 16797
" />
<path d="M1685 11990
L1606 12068
" />
<path d="M4260 10005
L4295 9970
" />
</g>
<g style="fill:#000000; fill-opacity:0.0; 
stroke:#000000; stroke-width:196.85; stroke-opacity:1; 
stroke-linecap:round; stroke-linejoin:round;">
<path d="M4268 8230
L4260 10005
" />
</g>
<g style="fill:#000000; fill-opacity:0.0; 
stroke:#000000; stroke-width:100; stroke-opacity:1; 
stroke-linecap:round; stroke-linejoin:round;">
<path d="M1579 12096
L1606 12068
" />
<path d="M2752 11844
L2811 11785
" />
</g>
<g style="fill:#000000; fill-opacity:0.0; 
stroke:#000000; stroke-width:196.85; stroke-opacity:1; 
stroke-linecap:round; stroke-linejoin:round;">
<path d="M1606 12068
L2752 11844
" />
<path d="M3638 7474
L1646 7474
" />
<path d="M4268 8104
L3638 7474
" />
</g>
<g style="fill:#000000; fill-opacity:0.0; 
stroke:#000000; stroke-width:100; stroke-opacity:1; 
stroke-linecap:round; stroke-linejoin:round;">
<path d="M4268 8230
L4268 8104
" />
<path d="M18158 6816
L18370 7029
" />
</g>
<g style="fill:#000000; fill-opacity:0.0; 
stroke:#000000; stroke-width:196.85; stroke-opacity:1; 
stroke-linecap:round; stroke-linejoin:round;">
<path d="M4295 10383
L4295 9970
" />
<path d="M2862 11785
L4295 10383
" />
</g>
<g style="fill:#000000; fill-opacity:0.0; 
stroke:#000000; stroke-width:100; stroke-opacity:1; 
stroke-linecap:round; stroke-linejoin:round;">
<path d="M2811 11785
L2862 11785
" />
<path d="M5740 14919
L5862 15041
" />
</g>
<g style="fill:#000000; fill-opacity:0.0; 
stroke:#000000; stroke-width:196.85; stroke-opacity:1; 
stroke-linecap:round; stroke-linejoin:round;">
<path d="M4295 14919
L5740 14919
" />
<path d="M3177 16037
L4295 14919
" />
<path d="M3177 16797
L3177 16037
" />
</g>
<g style="fill:#000000; fill-opacity:0.0; 
stroke:#000000; stroke-width:100; stroke-opacity:1; 
stroke-linecap:round; stroke-linejoin:round;">
<path d="M3701 14919
L3272 14458
" />
<path d="M3272 14458
L3272 12214
" />
<path d="M3272 12214
L2811 11785
" />
<path d="M4295 14919
L3701 14919
" />
<path d="M18701 6698
L18370 7029
" />
<path d="M9591 8305
L9591 7974
" />
</g>
<g style="fill:#000000; fill-opacity:0.0; 
stroke:#000000; stroke-width:196.85; stroke-opacity:1; 
stroke-linecap:round; stroke-linejoin:round;">
<path d="M5224 10899
L4295 9970
" />
<path d="M7197 10899
L5224 10899
" />
<path d="M8035 10061
L7197 10899
" />
<path d="M8035 9403
L8035 10061
" />
<path d="M9205 8234
L8035 9403
" />
<path d="M9591 8305
L9205 8234
" />
</g>
<g style="fill:#000000; fill-opacity:0.0; 
stroke:#000000; stroke-width:100; stroke-opacity:1; 
stroke-linecap:round; stroke-linejoin:round;">
<path d="M1646 6868
L1165 6387
" />
<path d="M1165 6387
L1165 4706
" />
<path d="M1165 4706
L1736 4135
" />
<path d="M1736 4135
L2980 4135
" />
<path d="M2980 4135
L3012 4104
" />
<path d="M3012 4104
L3012 1454
" />
<path d="M3012 1454
L3516 950
" />
<path d="M1646 7474
L1646 6868
" />
</g>
<g style="fill:#000000; fill-opacity:0.0; 
stroke:#000000; stroke-width:196.85; stroke-opacity:1; 
stroke-linecap:round; stroke-linejoin:round;">
<path d="M17717 1553
L17717 970
" />
<path d="M16949 2320
L17717 1553
" />
</g>
<g style="fill:#000000; fill-opacity:0.0; 
stroke:#000000; stroke-width:100; stroke-opacity:1; 
stroke-linecap:round; stroke-linejoin:round;">
<path d="M16685 2320
L16949 2320
" />
</g>
<g style="fill:#000000; fill-opacity:0.0; 
stroke:#000000; stroke-width:196.85; stroke-opacity:1; 
stroke-linecap:round; stroke-linejoin:round;">
<path d="M18358 4612
L17717 3970
" />
<path d="M18358 5285
L18358 4612
" />
<path d="M19835 6761
L18358 5285
" />
<path d="M20067 7738
L19835 6761
" />
<path d="M20393 8289
L20067 7738
" />
<path d="M21453 8289
L20393 8289
" />
</g>
<g style="fill:#000000; fill-opacity:0.0; 
stroke:#000000; stroke-width:100; stroke-opacity:1; 
stroke-linecap:round; stroke-linejoin:round;">
<path d="M18717 3970
L18717 3907
" />
</g>
<g style="fill:#000000; fill-opacity:0.0; 
stroke:#000000; stroke-width:196.85; stroke-opacity:1; 
stroke-linecap:round; stroke-linejoin:round;">
<path d="M19835 5088
L18717 3970
" />
<path d="M20067 5816
L19835 5088
" />
<path d="M20937 6911
L20067 5816
" />
<path d="M21453 6911
L20937 6911
" />
<path d="M7437 1076
L6661 1096
" />
</g>
<g style="fill:#000000; fill-opacity:0.0; 
stroke:#000000; stroke-width:100; stroke-opacity:1; 
stroke-linecap:round; stroke-linejoin:round;">
<path d="M6661 1096
L6516 950
" />
<path d="M5516 950
L5516 1045
" />
</g>
<g style="fill:#000000; fill-opacity:0.0; 
stroke:#000000; stroke-width:196.85; stroke-opacity:1; 
stroke-linecap:round; stroke-linejoin:round;">
<path d="M5516 1045
L4366 2116
" />
<path d="M4516 3950
L4457 2206
" />
</g>
<g style="fill:#000000; fill-opacity:0.0; 
stroke:#000000; stroke-width:100; stroke-opacity:1; 
stroke-linecap:round; stroke-linejoin:round;">
<path d="M4457 2206
L4366 2116
" />
<path d="M8303 1076
L8280 1076
" />
<path d="M8280 1076
L7831 1525
" />
<path d="M7831 1525
L6327 1525
" />
<path d="M6327 1525
L5516 950
" />
</g>
<g style="fill:#000000; fill-opacity:0.0; 
stroke:#000000; stroke-width:196.85; stroke-opacity:1; 
stroke-linecap:round; stroke-linejoin:round;">
<path d="M10421 2966
L11721 2379
" />
<path d="M9717 3671
L10421 2966
" />
</g>
<g style="fill:#000000; fill-opacity:0.0; 
stroke:#000000; stroke-width:100; stroke-opacity:1; 
stroke-linecap:round; stroke-linejoin:round;">
<path d="M9717 3970
L9717 3671
" />
<path d="M7520 5647
L7693 5474
" />
<path d="M2795 6092
L2795 6017
" />
<path d="M8386 6179
L8559 6687
" />
<path d="M8559 6687
L16650 6687
" />
<path d="M16650 6687
L17606 5458
" />
<path d="M17606 5458
L17606 5021
" />
<path d="M17606 5021
L17232 4647
" />
<path d="M17232 4647
L17232 3324
" />
<path d="M17232 3324
L17398 3159
" />
<path d="M17398 3159
L20906 3159
" />
<path d="M20906 3159
L21717 3970
" />
<path d="M5614 6179
L8386 6179
" />
</g>
<g style="fill:#000000; fill-opacity:0.0; 
stroke:#000000; stroke-width:196.85; stroke-opacity:1; 
stroke-linecap:round; stroke-linejoin:round;">
<path d="M7126 14946
L8126 14946
" />
<path d="M20437 250
L19717 970
" />
<path d="M22965 250
L20437 250
" />
<path d="M23626 820
L22965 250
" />
<path d="M23626 4277
L23626 820
" />
<path d="M22815 4958
L23626 4277
" />
<path d="M22815 5568
L22815 4958
" />
</g>
<g style="fill:#000000; fill-opacity:0.0; 
stroke:#000000; stroke-width:100; stroke-opacity:1; 
stroke-linecap:round; stroke-linejoin:round;">
<path d="M3295 9970
L3158 9970
" />
</g>
<g style="fill:#000000; fill-opacity:0.0; 
stroke:#000000; stroke-width:196.85; stroke-opacity:1; 
stroke-linecap:round; stroke-linejoin:round;">
<path d="M2898 10368
L3295 9970
" />
<path d="M1606 10494
L2898 10368
" />
</g>
<g style="fill:#000000; fill-opacity:0.0; 
stroke:#000000; stroke-width:100; stroke-opacity:1; 
stroke-linecap:round; stroke-linejoin:round;">
<path d="M5260 10005
L5295 9970
" />
</g>
<g style="fill:#000000; fill-opacity:0.0; 
stroke:#000000; stroke-width:196.85; stroke-opacity:1; 
stroke-linecap:round; stroke-linejoin:round;">
<path d="M5268 8230
L5260 10005
" />
</g>
<g style="fill:#000000; fill-opacity:0.0; 
stroke:#000000; stroke-width:100; stroke-opacity:1; 
stroke-linecap:round; stroke-linejoin:round;">
<path d="M5268 8230
L5323 8230
" />
</g>
<g style="fill:#000000; fill-opacity:0.0; 
stroke:#000000; stroke-width:196.85; stroke-opacity:1; 
stroke-linecap:round; stroke-linejoin:round;">
<path d="M14902 7616
L15591 8305
" />
<path d="M9358 7616
L14902 7616
" />
<path d="M8063 8911
L9358 7616
" />
<path d="M6102 8911
L8063 8911
" />
<path d="M5421 8230
L6102 8911
" />
</g>
<g style="fill:#000000; fill-opacity:0.0; 
stroke:#000000; stroke-width:100; stroke-opacity:1; 
stroke-linecap:round; stroke-linejoin:round;">
<path d="M5268 8230
L5421 8230
" />
<path d="M3110 8072
L3268 8230
" />
</g>
<g style="fill:#000000; fill-opacity:0.0; 
stroke:#000000; stroke-width:196.85; stroke-opacity:1; 
stroke-linecap:round; stroke-linejoin:round;">
<path d="M2449 9049
L3268 8230
" />
<path d="M1646 9049
L2449 9049
" />
<path d="M5547 7435
L5201 7435
" />
<path d="M5201 7435
L4614 6848
" />
<path d="M4614 6848
L4614 6179
" />
<path d="M6268 8155
L5547 7435
" />
</g>
<g style="fill:#000000; fill-opacity:0.0; 
stroke:#000000; stroke-width:100; stroke-opacity:1; 
stroke-linecap:round; stroke-linejoin:round;">
<path d="M6268 8230
L6268 8155
" />
<path d="M14591 8305
L14591 8265
" />
</g>
<g style="fill:#000000; fill-opacity:0.0; 
stroke:#000000; stroke-width:196.85; stroke-opacity:1; 
stroke-linecap:round; stroke-linejoin:round;">
<path d="M2177 15462
L2721 14919
" />
<path d="M2177 16797
L2177 15462
" />
</g>
<g style="fill:#000000; fill-opacity:0.0; 
stroke:#000000; stroke-width:100; stroke-opacity:1; 
stroke-linecap:round; stroke-linejoin:round;">
<path d="M10075 2155
L9839 2155
" />
</g>
<g style="fill:#000000; fill-opacity:0.0; 
stroke:#000000; stroke-width:196.85; stroke-opacity:1; 
stroke-linecap:round; stroke-linejoin:round;">
<path d="M8972 383
L8854 265
" />
<path d="M8854 265
L5122 265
" />
<path d="M5122 265
L4516 950
" />
<path d="M9839 2155
L8972 1289
" />
<path d="M8972 1289
L8972 383
" />
</g>
<g style="fill:#000000; fill-opacity:0.0; 
stroke:#000000; stroke-width:100; stroke-opacity:1; 
stroke-linecap:round; stroke-linejoin:round;">
<path d="M14795 2005
L15110 2320
" />
</g>
<g style="fill:#000000; fill-opacity:0.0; 
stroke:#000000; stroke-width:196.85; stroke-opacity:1; 
stroke-linecap:round; stroke-linejoin:round;">
<path d="M14437 1647
L15110 2320
" />
<path d="M11020 1647
L14437 1647
" />
<path d="M10512 2155
L11020 1647
" />
<path d="M10075 2155
L10512 2155
" />
<path d="M8500 2155
L5980 2155
" />
</g>
<g style="fill:#000000; fill-opacity:0.0; 
stroke:#000000; stroke-width:100; stroke-opacity:1; 
stroke-linecap:round; stroke-linejoin:round;">
<path d="M5980 2155
L5941 2116
" />
</g>
<g style="fill:#000000; fill-opacity:0.0; 
stroke:#000000; stroke-width:196.85; stroke-opacity:1; 
stroke-linecap:round; stroke-linejoin:round;">
<path d="M6213 4734
L8126 4734
" />
<path d="M8126 4734
L9102 5710
" />
<path d="M9102 5710
L9102 5816
" />
<path d="M9102 5816
L9343 6057
" />
<path d="M9343 6057
L15839 6057
" />
<path d="M15839 6057
L16591 5305
" />
<path d="M5516 4037
L6213 4734
" />
</g>
<g style="fill:#000000; fill-opacity:0.0; 
stroke:#000000; stroke-width:100; stroke-opacity:1; 
stroke-linecap:round; stroke-linejoin:round;">
<path d="M5516 3950
L5516 4037
" />
<path d="M5528 5092
L5614 5179
" />
</g>
<g style="fill:#000000; fill-opacity:0.0; 
stroke:#000000; stroke-width:196.85; stroke-opacity:1; 
stroke-linecap:round; stroke-linejoin:round;">
<path d="M2795 5092
L5528 5092
" />
</g>
<g style="fill:#000000; fill-opacity:0.0; 
stroke:#000000; stroke-width:100; stroke-opacity:1; 
stroke-linecap:round; stroke-linejoin:round;">
<path d="M5110 5683
L5614 5179
" />
<path d="M5110 6667
L5110 5683
" />
<path d="M5323 6879
L5110 6667
" />
<path d="M5969 6879
L5323 6879
" />
<path d="M6823 7734
L5969 6879
" />
<path d="M6823 8072
L6823 7734
" />
<path d="M7354 8604
L6823 8072
" />
<path d="M7815 8588
L7354 8604
" />
<path d="M9083 7104
L7815 8588
" />
<path d="M15870 7120
L9083 7104
" />
<path d="M16591 8175
L15870 7120
" />
<path d="M16591 8305
L16591 8175
" />
</g>
<g style="fill:#FFFFFF; fill-opacity:0.0; 
stroke:#FFFFFF; stroke-width:196.85; stroke-opacity:1; 
stroke-linecap:round; stroke-linejoin:round;">
</g>
<g style="fill:#FFFFFF; fill-opacity:1.0; 
stroke:#FFFFFF; stroke-width:196.85; stroke-opacity:1; 
stroke-linecap:round; stroke-linejoin:round;">
<circle cx="7437.55" cy="1076.77" r="61.5748" /> 
<circle cx="7437.55" cy="3076.77" r="61.5748" /> 
<circle cx="8303.69" cy="1076.77" r="61.5748" /> 
<circle cx="8303.69" cy="3076.77" r="61.5748" /> 
<circle cx="5862.75" cy="15041.3" r="61.5748" /> 
<circle cx="5862.75" cy="17041.3" r="61.5748" /> 
<circle cx="7693.46" cy="5474.41" r="61.5748" /> 
<circle cx="7693.46" cy="7474.41" r="61.5748" /> 
<circle cx="10717.1" cy="3970.47" r="61.5748" /> 
<circle cx="11717.1" cy="3970.47" r="61.5748" /> 
<circle cx="12717.1" cy="3970.47" r="61.5748" /> 
<circle cx="13717.1" cy="3970.47" r="61.5748" /> 
<circle cx="14717.1" cy="3970.47" r="61.5748" /> 
<circle cx="15717.1" cy="3970.47" r="61.5748" /> 
<circle cx="16717.1" cy="3970.47" r="61.5748" /> 
<circle cx="17717.1" cy="3970.47" r="61.5748" /> 
<circle cx="18717.1" cy="3970.47" r="61.5748" /> 
<circle cx="19717.1" cy="3970.47" r="61.5748" /> 
<circle cx="20717.1" cy="3970.47" r="61.5748" /> 
<circle cx="21717.1" cy="3970.47" r="61.5748" /> 
<circle cx="22717.1" cy="3970.47" r="61.5748" /> 
<circle cx="9717.08" cy="3970.47" r="61.5748" /> 
<circle cx="22717.1" cy="970.473" r="61.5748" /> 
<circle cx="21717.1" cy="970.473" r="61.5748" /> 
<circle cx="20717.1" cy="970.473" r="61.5748" /> 
<circle cx="19717.1" cy="970.473" r="61.5748" /> 
<circle cx="18717.1" cy="970.473" r="61.5748" /> 
<circle cx="17717.1" cy="970.473" r="61.5748" /> 
<circle cx="16717.1" cy="970.473" r="61.5748" /> 
<circle cx="15717.1" cy="970.473" r="61.5748" /> 
<circle cx="14717.1" cy="970.473" r="61.5748" /> 
<circle cx="13717.1" cy="970.473" r="61.5748" /> 
<circle cx="12717.1" cy="970.473" r="61.5748" /> 
<circle cx="11717.1" cy="970.473" r="61.5748" /> 
<circle cx="10717.1" cy="970.473" r="61.5748" /> 
<circle cx="9717.08" cy="970.473" r="61.5748" /> 
<circle cx="8126.53" cy="16946.9" r="101.575" /> 
<circle cx="7126.53" cy="16946.9" r="101.575" /> 
<circle cx="8126.53" cy="15946.9" r="101.575" /> 
<circle cx="7126.53" cy="15946.9" r="101.575" /> 
<circle cx="8126.53" cy="14946.9" r="101.575" /> 
<circle cx="7126.53" cy="14946.9" r="101.575" /> 
<circle cx="22815.5" cy="5568.9" r="101.575" /> 
<circle cx="21815.5" cy="5568.9" r="101.575" /> 
<circle cx="3295.82" cy="9970.47" r="101.575" /> 
<circle cx="4295.82" cy="9970.47" r="101.575" /> 
<circle cx="5295.82" cy="9970.47" r="101.575" /> 
<circle cx="6295.82" cy="9970.47" r="101.575" /> 
<circle cx="3268.26" cy="8230.32" r="101.575" /> 
<circle cx="4268.26" cy="8230.32" r="101.575" /> 
<circle cx="5268.26" cy="8230.32" r="101.575" /> 
<circle cx="6268.26" cy="8230.32" r="101.575" /> 
<circle cx="18370.6" cy="7029.53" r="101.575" /> 
<circle cx="18370.6" cy="8029.53" r="101.575" /> 
<circle cx="1795.82" cy="6092.52" r="61.5748" /> 
<circle cx="2795.82" cy="6092.52" r="61.5748" /> 
<circle cx="2795.82" cy="5092.52" r="61.5748" /> 
<circle cx="4614.72" cy="6179.13" r="61.5748" /> 
<circle cx="5614.72" cy="6179.13" r="61.5748" /> 
<circle cx="5614.72" cy="5179.13" r="61.5748" /> 
<circle cx="7039.91" cy="12836.6" r="19.685" /> 
<circle cx="8020.23" cy="11852.4" r="19.685" /> 
<circle cx="8020.23" cy="13816.9" r="19.685" /> 
<circle cx="3177.71" cy="16797.2" r="126.575" /> 
<circle cx="4177.71" cy="16797.2" r="126.575" /> 
<circle cx="2177.71" cy="16797.2" r="126.575" /> 
<circle cx="3516.29" cy="3950.79" r="61.5748" /> 
<circle cx="4516.29" cy="3950.79" r="61.5748" /> 
<circle cx="5516.29" cy="3950.79" r="61.5748" /> 
<circle cx="6516.29" cy="3950.79" r="61.5748" /> 
<circle cx="6516.29" cy="950.788" r="61.5748" /> 
<circle cx="5516.29" cy="950.788" r="61.5748" /> 
<circle cx="4516.29" cy="950.788" r="61.5748" /> 
<circle cx="3516.29" cy="950.788" r="61.5748" /> 
<circle cx="16591.1" cy="5305.12" r="61.5748" /> 
<circle cx="15591.1" cy="5305.12" r="61.5748" /> 
<circle cx="14591.1" cy="5305.12" r="61.5748" /> 
<circle cx="13591.1" cy="5305.12" r="61.5748" /> 
<circle cx="12591.1" cy="5305.12" r="61.5748" /> 
<circle cx="11591.1" cy="5305.12" r="61.5748" /> 
<circle cx="10591.1" cy="5305.12" r="61.5748" /> 
<circle cx="9591.09" cy="5305.12" r="61.5748" /> 
<circle cx="9591.09" cy="8305.12" r="61.5748" /> 
<circle cx="10591.1" cy="8305.12" r="61.5748" /> 
<circle cx="11591.1" cy="8305.12" r="61.5748" /> 
<circle cx="12591.1" cy="8305.12" r="61.5748" /> 
<circle cx="13591.1" cy="8305.12" r="61.5748" /> 
<circle cx="14591.1" cy="8305.12" r="61.5748" /> 
<circle cx="15591.1" cy="8305.12" r="61.5748" /> 
<circle cx="16591.1" cy="8305.12" r="61.5748" /> 
<circle cx="20067.5" cy="7738.56" r="59.0748" /> 
<circle cx="20067.5" cy="5816.56" r="59.0748" /> 
<circle cx="2795.82" cy="13946.9" r="61.5748" /> 
<circle cx="3795.82" cy="13946.9" r="61.5748" /> 
<circle cx="2811.57" cy="11785.4" r="61.5748" /> 
<circle cx="3811.57" cy="11785.4" r="61.5748" /> 
</g> 
</svg>
