<?xml version="1.0" standalone="no"?>
 <!DOCTYPE svg PUBLIC "-//W3C//DTD SVG 1.1//EN" 
 "http://www.w3.org/Graphics/SVG/1.1/DTD/svg11.dtd"> 
<svg xmlns="http://www.w3.org/2000/svg" version="1.1" 
    width="6.43382cm" height="4.9149cm" viewBox="0 0 25330 19350 ">
<title>SVG Picture created as bajaController-F_Cu.svg date 2015/03/25 22:59:20 </title>
  <desc>Picture generated by PCBNEW </desc>
<g style="fill:#000000; fill-opacity:1;stroke:#000000; stroke-opacity:1;
stroke-linecap:round; stroke-linejoin:round; "
 transform="translate(0 0) scale(1 1)">
</g>
<g style="fill:#000000; fill-opacity:0.0; 
stroke:#000000; stroke-width:59.0551; stroke-opacity:1; 
stroke-linecap:round; stroke-linejoin:round;">
<path d="M24349 3887
L24349 17706
" />
<path d="M22420 3887
L24349 3887
" />
<path d="M22420 29
L22420 3887
" />
<path d="M1553 29
L22420 29
" />
<path d="M1553 9045
L1553 29
" />
<path d="M16435 9045
L1553 9045
" />
<path d="M16435 17706
L16435 9045
" />
<path d="M24349 17706
L16435 17706
" />
</g>
<g style="fill:#000000; fill-opacity:0.0; 
stroke:#000000; stroke-width:196.85; stroke-opacity:1; 
stroke-linecap:round; stroke-linejoin:round;">
</g>
<g style="fill:#000000; fill-opacity:1.0; 
stroke:#000000; stroke-width:196.85; stroke-opacity:1; 
stroke-linecap:round; stroke-linejoin:round;">
<circle cx="17892.4" cy="1076.77" r="176.575" /> 
<circle cx="17892.4" cy="3076.77" r="176.575" /> 
<circle cx="17026.3" cy="1076.77" r="176.575" /> 
<circle cx="17026.3" cy="3076.77" r="176.575" /> 
<circle cx="19467.3" cy="15041.3" r="295.276" /> 
<circle cx="19467.3" cy="17041.3" r="295.276" /> 
<circle cx="17636.5" cy="5474.41" r="295.276" /> 
<circle cx="17636.5" cy="7474.41" r="295.276" /> 
</g>
<g style="fill:#000000; fill-opacity:1.0; 
stroke:#000000; stroke-width:620; stroke-opacity:1; 
stroke-linecap:round; stroke-linejoin:round;">
</g>
<g style="fill:#000000; fill-opacity:0.0; 
stroke:#000000; stroke-width:620; stroke-opacity:1; 
stroke-linecap:round; stroke-linejoin:round;">
<path d="M14612 3830
L14612 4110
" />
<path d="M13612 3830
L13612 4110
" />
<path d="M12612 3830
L12612 4110
" />
<path d="M11612 3830
L11612 4110
" />
<path d="M10612 3830
L10612 4110
" />
<path d="M9612 3830
L9612 4110
" />
<path d="M8612 3830
L8612 4110
" />
<path d="M7612 3830
L7612 4110
" />
<path d="M6612 3830
L6612 4110
" />
<path d="M5612 3830
L5612 4110
" />
<path d="M4612 3830
L4612 4110
" />
<path d="M3612 3830
L3612 4110
" />
<path d="M2612 3830
L2612 4110
" />
</g>
<g style="fill:#000000; fill-opacity:0.0; 
stroke:#000000; stroke-width:196.85; stroke-opacity:1; 
stroke-linecap:round; stroke-linejoin:round;">
</g>
<g style="fill:#000000; fill-opacity:1.0; 
stroke:#000000; stroke-width:196.85; stroke-opacity:1; 
stroke-linecap:round; stroke-linejoin:round;">
<polyline style="fill-rule:evenodd;"
points="15824,4322
15824,3618
15401,3618
15401,4322
15824,4322
" /> 
</g>
<g style="fill:#000000; fill-opacity:1.0; 
stroke:#000000; stroke-width:620; stroke-opacity:1; 
stroke-linecap:round; stroke-linejoin:round;">
</g>
<g style="fill:#000000; fill-opacity:0.0; 
stroke:#000000; stroke-width:620; stroke-opacity:1; 
stroke-linecap:round; stroke-linejoin:round;">
<path d="M2612 830
L2612 1110
" />
<path d="M3612 830
L3612 1110
" />
<path d="M4612 830
L4612 1110
" />
<path d="M5612 830
L5612 1110
" />
<path d="M6612 830
L6612 1110
" />
<path d="M7612 830
L7612 1110
" />
<path d="M8612 830
L8612 1110
" />
<path d="M9612 830
L9612 1110
" />
<path d="M10612 830
L10612 1110
" />
<path d="M11612 830
L11612 1110
" />
<path d="M12612 830
L12612 1110
" />
<path d="M13612 830
L13612 1110
" />
<path d="M14612 830
L14612 1110
" />
<path d="M15612 830
L15612 1110
" />
</g>
<g style="fill:#000000; fill-opacity:0.0; 
stroke:#000000; stroke-width:196.85; stroke-opacity:1; 
stroke-linecap:round; stroke-linejoin:round;">
</g>
<g style="fill:#000000; fill-opacity:1.0; 
stroke:#000000; stroke-width:196.85; stroke-opacity:1; 
stroke-linecap:round; stroke-linejoin:round;">
<polyline style="fill-rule:evenodd;"
points="16961,16705
16961,17188
17445,17188
17445,16705
16961,16705
" /> 
</g>
<g style="fill:#000000; fill-opacity:1.0; 
stroke:#000000; stroke-width:787.402; stroke-opacity:1; 
stroke-linecap:round; stroke-linejoin:round;">
</g>
<g style="fill:#000000; fill-opacity:0.0; 
stroke:#000000; stroke-width:787.402; stroke-opacity:1; 
stroke-linecap:round; stroke-linejoin:round;">
<path d="M18203 16946
L18203 16946
" />
<path d="M17203 15946
L17203 15946
" />
<path d="M18203 15946
L18203 15946
" />
<path d="M17203 14946
L17203 14946
" />
<path d="M18203 14946
L18203 14946
" />
</g>
<g style="fill:#000000; fill-opacity:0.0; 
stroke:#000000; stroke-width:196.85; stroke-opacity:1; 
stroke-linecap:round; stroke-linejoin:round;">
</g>
<g style="fill:#000000; fill-opacity:1.0; 
stroke:#000000; stroke-width:196.85; stroke-opacity:1; 
stroke-linecap:round; stroke-linejoin:round;">
<polyline style="fill-rule:evenodd;"
points="2816,5267
2212,5267
2212,5870
2816,5870
2816,5267
" /> 
</g>
<g style="fill:#000000; fill-opacity:1.0; 
stroke:#000000; stroke-width:800; stroke-opacity:1; 
stroke-linecap:round; stroke-linejoin:round;">
</g>
<g style="fill:#000000; fill-opacity:0.0; 
stroke:#000000; stroke-width:800; stroke-opacity:1; 
stroke-linecap:round; stroke-linejoin:round;">
<path d="M3514 5568
L3514 5568
" />
</g>
<g style="fill:#000000; fill-opacity:0.0; 
stroke:#000000; stroke-width:196.85; stroke-opacity:1; 
stroke-linecap:round; stroke-linejoin:round;">
</g>
<g style="fill:#000000; fill-opacity:1.0; 
stroke:#000000; stroke-width:196.85; stroke-opacity:1; 
stroke-linecap:round; stroke-linejoin:round;">
<polyline style="fill-rule:evenodd;"
points="21792,10272
22275,10272
22275,9668
21792,9668
21792,10272
" /> 
</g>
<g style="fill:#000000; fill-opacity:1.0; 
stroke:#000000; stroke-width:680; stroke-opacity:1; 
stroke-linecap:round; stroke-linejoin:round;">
</g>
<g style="fill:#000000; fill-opacity:0.0; 
stroke:#000000; stroke-width:680; stroke-opacity:1; 
stroke-linecap:round; stroke-linejoin:round;">
<path d="M21034 10030
L21034 9910
" />
<path d="M20034 10030
L20034 9910
" />
<path d="M19034 10030
L19034 9910
" />
</g>
<g style="fill:#000000; fill-opacity:0.0; 
stroke:#000000; stroke-width:196.85; stroke-opacity:1; 
stroke-linecap:round; stroke-linejoin:round;">
</g>
<g style="fill:#000000; fill-opacity:1.0; 
stroke:#000000; stroke-width:196.85; stroke-opacity:1; 
stroke-linecap:round; stroke-linejoin:round;">
<polyline style="fill-rule:evenodd;"
points="21820,8531
22303,8531
22303,7928
21820,7928
21820,8531
" /> 
</g>
<g style="fill:#000000; fill-opacity:1.0; 
stroke:#000000; stroke-width:680; stroke-opacity:1; 
stroke-linecap:round; stroke-linejoin:round;">
</g>
<g style="fill:#000000; fill-opacity:0.0; 
stroke:#000000; stroke-width:680; stroke-opacity:1; 
stroke-linecap:round; stroke-linejoin:round;">
<path d="M21061 8290
L21061 8170
" />
<path d="M20061 8290
L20061 8170
" />
<path d="M19061 8290
L19061 8170
" />
</g>
<g style="fill:#000000; fill-opacity:0.0; 
stroke:#000000; stroke-width:196.85; stroke-opacity:1; 
stroke-linecap:round; stroke-linejoin:round;">
</g>
<g style="fill:#000000; fill-opacity:1.0; 
stroke:#000000; stroke-width:196.85; stroke-opacity:1; 
stroke-linecap:round; stroke-linejoin:round;">
<polyline style="fill-rule:evenodd;"
points="7260,7331
7260,6727
6657,6727
6657,7331
7260,7331
" /> 
</g>
<g style="fill:#000000; fill-opacity:1.0; 
stroke:#000000; stroke-width:800; stroke-opacity:1; 
stroke-linecap:round; stroke-linejoin:round;">
</g>
<g style="fill:#000000; fill-opacity:0.0; 
stroke:#000000; stroke-width:800; stroke-opacity:1; 
stroke-linecap:round; stroke-linejoin:round;">
<path d="M6959 8029
L6959 8029
" />
</g>
<g style="fill:#000000; fill-opacity:0.0; 
stroke:#000000; stroke-width:196.85; stroke-opacity:1; 
stroke-linecap:round; stroke-linejoin:round;">
</g>
<g style="fill:#000000; fill-opacity:1.0; 
stroke:#000000; stroke-width:196.85; stroke-opacity:1; 
stroke-linecap:round; stroke-linejoin:round;">
<polyline style="fill-rule:evenodd;"
points="23317,5875
23317,6309
23750,6309
23750,5875
23317,5875
" /> 
<circle cx="22534.2" cy="6092.52" r="295.276" /> 
<circle cx="22534.2" cy="5092.52" r="295.276" /> 
<polyline style="fill-rule:evenodd;"
points="20498,5962
20498,6395
20931,6395
20931,5962
20498,5962
" /> 
<circle cx="19715.3" cy="6179.13" r="295.276" /> 
<circle cx="19715.3" cy="5179.13" r="295.276" /> 
<circle cx="18290.1" cy="12836.6" r="295.276" /> 
<circle cx="17309.8" cy="11852.4" r="295.276" /> 
<circle cx="17309.8" cy="13816.9" r="295.276" /> 
</g>
<g style="fill:#000000; fill-opacity:1.0; 
stroke:#000000; stroke-width:800; stroke-opacity:1; 
stroke-linecap:round; stroke-linejoin:round;">
</g>
<g style="fill:#000000; fill-opacity:0.0; 
stroke:#000000; stroke-width:800; stroke-opacity:1; 
stroke-linecap:round; stroke-linejoin:round;">
<path d="M22152 16697
L22152 16897
" />
<path d="M21152 16697
L21152 16897
" />
<path d="M23152 16697
L23152 16897
" />
</g>
<g style="fill:#000000; fill-opacity:0.0; 
stroke:#000000; stroke-width:196.85; stroke-opacity:1; 
stroke-linecap:round; stroke-linejoin:round;">
</g>
<g style="fill:#000000; fill-opacity:1.0; 
stroke:#000000; stroke-width:196.85; stroke-opacity:1; 
stroke-linecap:round; stroke-linejoin:round;">
<polyline style="fill-rule:evenodd;"
points="22025,4302
22025,3599
21602,3599
21602,4302
22025,4302
" /> 
</g>
<g style="fill:#000000; fill-opacity:1.0; 
stroke:#000000; stroke-width:620; stroke-opacity:1; 
stroke-linecap:round; stroke-linejoin:round;">
</g>
<g style="fill:#000000; fill-opacity:0.0; 
stroke:#000000; stroke-width:620; stroke-opacity:1; 
stroke-linecap:round; stroke-linejoin:round;">
<path d="M20813 3810
L20813 4090
" />
<path d="M19813 3810
L19813 4090
" />
<path d="M18813 3810
L18813 4090
" />
<path d="M18813 810
L18813 1090
" />
<path d="M19813 810
L19813 1090
" />
<path d="M20813 810
L20813 1090
" />
<path d="M21813 810
L21813 1090
" />
</g>
<g style="fill:#000000; fill-opacity:0.0; 
stroke:#000000; stroke-width:196.85; stroke-opacity:1; 
stroke-linecap:round; stroke-linejoin:round;">
</g>
<g style="fill:#000000; fill-opacity:1.0; 
stroke:#000000; stroke-width:196.85; stroke-opacity:1; 
stroke-linecap:round; stroke-linejoin:round;">
<polyline style="fill-rule:evenodd;"
points="8527,4953
8527,5656
8950,5656
8950,4953
8527,4953
" /> 
</g>
<g style="fill:#000000; fill-opacity:1.0; 
stroke:#000000; stroke-width:620; stroke-opacity:1; 
stroke-linecap:round; stroke-linejoin:round;">
</g>
<g style="fill:#000000; fill-opacity:0.0; 
stroke:#000000; stroke-width:620; stroke-opacity:1; 
stroke-linecap:round; stroke-linejoin:round;">
<path d="M9738 5445
L9738 5165
" />
<path d="M10738 5445
L10738 5165
" />
<path d="M11738 5445
L11738 5165
" />
<path d="M12738 5445
L12738 5165
" />
<path d="M13738 5445
L13738 5165
" />
<path d="M14738 5445
L14738 5165
" />
<path d="M15738 5445
L15738 5165
" />
<path d="M15738 8445
L15738 8165
" />
<path d="M14738 8445
L14738 8165
" />
<path d="M13738 8445
L13738 8165
" />
<path d="M12738 8445
L12738 8165
" />
<path d="M11738 8445
L11738 8165
" />
<path d="M10738 8445
L10738 8165
" />
<path d="M9738 8445
L9738 8165
" />
<path d="M8738 8445
L8738 8165
" />
</g>
<g style="fill:#000000; fill-opacity:0.0; 
stroke:#000000; stroke-width:196.85; stroke-opacity:1; 
stroke-linecap:round; stroke-linejoin:round;">
</g>
<g style="fill:#000000; fill-opacity:1.0; 
stroke:#000000; stroke-width:196.85; stroke-opacity:1; 
stroke-linecap:round; stroke-linejoin:round;">
<circle cx="5262.53" cy="7738.56" r="295.276" /> 
<circle cx="5262.53" cy="5816.56" r="295.276" /> 
<polyline style="fill-rule:evenodd;"
points="22750,14163
22750,13730
22317,13730
22317,14163
22750,14163
" /> 
<circle cx="21534.2" cy="13946.9" r="255.906" /> 
<polyline style="fill-rule:evenodd;"
points="22774,12041
22774,11529
22262,11529
22262,12041
22774,12041
" /> 
<circle cx="21518.4" cy="11785.4" r="255.906" /> 
</g>
<g style="fill:#000000; fill-opacity:1.0; 
stroke:#000000; stroke-width:100; stroke-opacity:1; 
stroke-linecap:round; stroke-linejoin:round;">
</g>
<g style="fill:#000000; fill-opacity:0.0; 
stroke:#000000; stroke-width:100; stroke-opacity:1; 
stroke-linecap:round; stroke-linejoin:round;">
<path d="M21518 11785
L21518 11588
" />
<path d="M9955 356
L15872 356
" />
<path d="M15872 356
L16467 938
" />
<path d="M16467 938
L16467 2517
" />
<path d="M16467 2517
L17026 3076
" />
<path d="M9612 592
L9955 356
" />
<path d="M9612 970
L9612 592
" />
</g>
<g style="fill:#000000; fill-opacity:0.0; 
stroke:#000000; stroke-width:196.85; stroke-opacity:1; 
stroke-linecap:round; stroke-linejoin:round;">
<path d="M17636 7202
L15738 5305
" />
</g>
<g style="fill:#000000; fill-opacity:0.0; 
stroke:#000000; stroke-width:100; stroke-opacity:1; 
stroke-linecap:round; stroke-linejoin:round;">
<path d="M17636 7474
L17636 7202
" />
</g>
<g style="fill:#000000; fill-opacity:0.0; 
stroke:#000000; stroke-width:196.85; stroke-opacity:1; 
stroke-linecap:round; stroke-linejoin:round;">
<path d="M17636 8891
L17636 7474
" />
<path d="M17309 9218
L17636 8891
" />
<path d="M17309 11852
L17309 9218
" />
</g>
<g style="fill:#000000; fill-opacity:0.0; 
stroke:#000000; stroke-width:100; stroke-opacity:1; 
stroke-linecap:round; stroke-linejoin:round;">
<path d="M7612 970
L7612 1403
" />
<path d="M7612 1403
L9612 3403
" />
<path d="M9612 3403
L9612 3970
" />
<path d="M7357 7194
L6900 6816
" />
</g>
<g style="fill:#000000; fill-opacity:0.0; 
stroke:#000000; stroke-width:196.85; stroke-opacity:1; 
stroke-linecap:round; stroke-linejoin:round;">
<path d="M15431 7194
L7357 7194
" />
<path d="M15754 7750
L15431 7194
" />
<path d="M15738 8305
L15754 7750
" />
</g>
<g style="fill:#000000; fill-opacity:0.0; 
stroke:#000000; stroke-width:100; stroke-opacity:1; 
stroke-linecap:round; stroke-linejoin:round;">
<path d="M10998 6816
L11242 6844
" />
<path d="M11242 6844
L11242 4907
" />
<path d="M11242 4907
L10979 4643
" />
<path d="M10979 4643
L10286 4643
" />
<path d="M10286 4643
L9612 3970
" />
<path d="M6900 6816
L10998 6816
" />
</g>
<g style="fill:#000000; fill-opacity:0.0; 
stroke:#000000; stroke-width:196.85; stroke-opacity:1; 
stroke-linecap:round; stroke-linejoin:round;">
<path d="M17116 5474
L15612 3970
" />
<path d="M17636 5474
L17116 5474
" />
</g>
<g style="fill:#000000; fill-opacity:0.0; 
stroke:#000000; stroke-width:100; stroke-opacity:1; 
stroke-linecap:round; stroke-linejoin:round;">
<path d="M22534 6092
L22534 6025
" />
<path d="M21927 6092
L20522 4687
" />
<path d="M20522 4687
L17664 4687
" />
<path d="M17664 4687
L15640 2663
" />
<path d="M15640 2663
L9742 2663
" />
<path d="M9742 2663
L9132 2053
" />
<path d="M9132 2053
L9132 505
" />
<path d="M9132 505
L8942 316
" />
<path d="M8942 316
L4342 316
" />
<path d="M4342 316
L4108 549
" />
<path d="M4108 549
L4108 3466
" />
<path d="M4108 3466
L4612 3970
" />
<path d="M22534 6092
L21927 6092
" />
<path d="M2612 1927
L3116 1423
" />
<path d="M3116 1423
L3116 627
" />
<path d="M3116 627
L3628 116
" />
<path d="M3628 116
L16951 116
" />
<path d="M16951 116
L17463 627
" />
<path d="M17463 627
L17463 1722
" />
<path d="M17463 1722
L18250 2509
" />
<path d="M18250 2509
L18250 2517
" />
<path d="M18250 2517
L18813 3080
" />
<path d="M18813 3080
L18813 3950
" />
<path d="M2612 3970
L2612 1927
" />
<path d="M18203 14946
L18258 14946
" />
<path d="M17203 14946
L17203 14612
" />
<path d="M16573 14372
L16573 8958
" />
<path d="M16573 8958
L16522 8907
" />
<path d="M16522 8907
L2939 8907
" />
<path d="M2939 8907
L1825 7793
" />
<path d="M1825 7793
L1825 1757
" />
<path d="M1825 1757
L2612 970
" />
<path d="M17148 14946
L16573 14372
" />
<path d="M17203 14946
L17148 14946
" />
<path d="M3612 970
L3612 1218
" />
<path d="M3612 2265
L3077 2801
" />
<path d="M3077 2801
L3077 4643
" />
<path d="M3077 4643
L3231 4797
" />
<path d="M3231 4797
L6286 4797
" />
<path d="M6286 4797
L7148 5659
" />
<path d="M7148 5659
L7412 5659
" />
<path d="M7412 5659
L8045 6293
" />
<path d="M8045 6293
L9750 6293
" />
<path d="M9750 6293
L10738 5305
" />
<path d="M3612 970
L3612 2265
" />
<path d="M6171 2529
L4612 970
" />
<path d="M8219 2529
L6171 2529
" />
<path d="M9089 3399
L8219 2529
" />
<path d="M9089 4498
L9089 3399
" />
<path d="M9738 5147
L9089 4498
" />
<path d="M9738 5305
L9738 5147
" />
<path d="M19034 9970
L19164 9970
" />
</g>
<g style="fill:#000000; fill-opacity:0.0; 
stroke:#000000; stroke-width:196.85; stroke-opacity:1; 
stroke-linecap:round; stroke-linejoin:round;">
<path d="M22947 6679
L23534 6092
" />
<path d="M22947 8848
L22947 6679
" />
<path d="M22754 9041
L22947 8848
" />
<path d="M19589 9041
L22754 9041
" />
<path d="M19034 9596
L19589 9041
" />
</g>
<g style="fill:#000000; fill-opacity:0.0; 
stroke:#000000; stroke-width:100; stroke-opacity:1; 
stroke-linecap:round; stroke-linejoin:round;">
<path d="M19034 9970
L19034 9596
" />
</g>
<g style="fill:#000000; fill-opacity:0.0; 
stroke:#000000; stroke-width:196.85; stroke-opacity:1; 
stroke-linecap:round; stroke-linejoin:round;">
<path d="M10049 7616
L10738 8305
" />
<path d="M8309 7616
L10049 7616
" />
<path d="M7896 8029
L8309 7616
" />
<path d="M6959 8029
L7896 8029
" />
<path d="M22191 15836
L23152 16797
" />
<path d="M21880 15836
L22191 15836
" />
<path d="M21341 15297
L21880 15836
" />
<path d="M21341 15041
L21341 15297
" />
<path d="M19136 12836
L21341 15041
" />
<path d="M18290 12836
L19136 12836
" />
</g>
<g style="fill:#000000; fill-opacity:0.0; 
stroke:#000000; stroke-width:100; stroke-opacity:1; 
stroke-linecap:round; stroke-linejoin:round;">
<path d="M8738 5305
L8738 5470
" />
</g>
<g style="fill:#FFFFFF; fill-opacity:0.0; 
stroke:#FFFFFF; stroke-width:196.85; stroke-opacity:1; 
stroke-linecap:round; stroke-linejoin:round;">
</g>
<g style="fill:#FFFFFF; fill-opacity:1.0; 
stroke:#FFFFFF; stroke-width:196.85; stroke-opacity:1; 
stroke-linecap:round; stroke-linejoin:round;">
<circle cx="17892.4" cy="1076.77" r="61.5748" /> 
<circle cx="17892.4" cy="3076.77" r="61.5748" /> 
<circle cx="17026.3" cy="1076.77" r="61.5748" /> 
<circle cx="17026.3" cy="3076.77" r="61.5748" /> 
<circle cx="19467.3" cy="15041.3" r="61.5748" /> 
<circle cx="19467.3" cy="17041.3" r="61.5748" /> 
<circle cx="17636.5" cy="5474.41" r="61.5748" /> 
<circle cx="17636.5" cy="7474.41" r="61.5748" /> 
<circle cx="14612.9" cy="3970.47" r="61.5748" /> 
<circle cx="13612.9" cy="3970.47" r="61.5748" /> 
<circle cx="12612.9" cy="3970.47" r="61.5748" /> 
<circle cx="11612.9" cy="3970.47" r="61.5748" /> 
<circle cx="10612.9" cy="3970.47" r="61.5748" /> 
<circle cx="9612.92" cy="3970.47" r="61.5748" /> 
<circle cx="8612.92" cy="3970.47" r="61.5748" /> 
<circle cx="7612.92" cy="3970.47" r="61.5748" /> 
<circle cx="6612.92" cy="3970.47" r="61.5748" /> 
<circle cx="5612.92" cy="3970.47" r="61.5748" /> 
<circle cx="4612.92" cy="3970.47" r="61.5748" /> 
<circle cx="3612.92" cy="3970.47" r="61.5748" /> 
<circle cx="2612.92" cy="3970.47" r="61.5748" /> 
<circle cx="15612.9" cy="3970.47" r="61.5748" /> 
<circle cx="2612.92" cy="970.473" r="61.5748" /> 
<circle cx="3612.92" cy="970.473" r="61.5748" /> 
<circle cx="4612.92" cy="970.473" r="61.5748" /> 
<circle cx="5612.92" cy="970.473" r="61.5748" /> 
<circle cx="6612.92" cy="970.473" r="61.5748" /> 
<circle cx="7612.92" cy="970.473" r="61.5748" /> 
<circle cx="8612.92" cy="970.473" r="61.5748" /> 
<circle cx="9612.92" cy="970.473" r="61.5748" /> 
<circle cx="10612.9" cy="970.473" r="61.5748" /> 
<circle cx="11612.9" cy="970.473" r="61.5748" /> 
<circle cx="12612.9" cy="970.473" r="61.5748" /> 
<circle cx="13612.9" cy="970.473" r="61.5748" /> 
<circle cx="14612.9" cy="970.473" r="61.5748" /> 
<circle cx="15612.9" cy="970.473" r="61.5748" /> 
<circle cx="17203.5" cy="16946.9" r="101.575" /> 
<circle cx="18203.5" cy="16946.9" r="101.575" /> 
<circle cx="17203.5" cy="15946.9" r="101.575" /> 
<circle cx="18203.5" cy="15946.9" r="101.575" /> 
<circle cx="17203.5" cy="14946.9" r="101.575" /> 
<circle cx="18203.5" cy="14946.9" r="101.575" /> 
<circle cx="2514.5" cy="5568.9" r="101.575" /> 
<circle cx="3514.5" cy="5568.9" r="101.575" /> 
<circle cx="22034.2" cy="9970.47" r="101.575" /> 
<circle cx="21034.2" cy="9970.47" r="101.575" /> 
<circle cx="20034.2" cy="9970.47" r="101.575" /> 
<circle cx="19034.2" cy="9970.47" r="101.575" /> 
<circle cx="22061.7" cy="8230.32" r="101.575" /> 
<circle cx="21061.7" cy="8230.32" r="101.575" /> 
<circle cx="20061.7" cy="8230.32" r="101.575" /> 
<circle cx="19061.7" cy="8230.32" r="101.575" /> 
<circle cx="6959.38" cy="7029.53" r="101.575" /> 
<circle cx="6959.38" cy="8029.53" r="101.575" /> 
<circle cx="23534.2" cy="6092.52" r="61.5748" /> 
<circle cx="22534.2" cy="6092.52" r="61.5748" /> 
<circle cx="22534.2" cy="5092.52" r="61.5748" /> 
<circle cx="20715.3" cy="6179.13" r="61.5748" /> 
<circle cx="19715.3" cy="6179.13" r="61.5748" /> 
<circle cx="19715.3" cy="5179.13" r="61.5748" /> 
<circle cx="18290.1" cy="12836.6" r="19.685" /> 
<circle cx="17309.8" cy="11852.4" r="19.685" /> 
<circle cx="17309.8" cy="13816.9" r="19.685" /> 
<circle cx="22152.3" cy="16797.2" r="126.575" /> 
<circle cx="21152.3" cy="16797.2" r="126.575" /> 
<circle cx="23152.3" cy="16797.2" r="126.575" /> 
<circle cx="21813.7" cy="3950.79" r="61.5748" /> 
<circle cx="20813.7" cy="3950.79" r="61.5748" /> 
<circle cx="19813.7" cy="3950.79" r="61.5748" /> 
<circle cx="18813.7" cy="3950.79" r="61.5748" /> 
<circle cx="18813.7" cy="950.788" r="61.5748" /> 
<circle cx="19813.7" cy="950.788" r="61.5748" /> 
<circle cx="20813.7" cy="950.788" r="61.5748" /> 
<circle cx="21813.7" cy="950.788" r="61.5748" /> 
<circle cx="8738.91" cy="5305.12" r="61.5748" /> 
<circle cx="9738.91" cy="5305.12" r="61.5748" /> 
<circle cx="10738.9" cy="5305.12" r="61.5748" /> 
<circle cx="11738.9" cy="5305.12" r="61.5748" /> 
<circle cx="12738.9" cy="5305.12" r="61.5748" /> 
<circle cx="13738.9" cy="5305.12" r="61.5748" /> 
<circle cx="14738.9" cy="5305.12" r="61.5748" /> 
<circle cx="15738.9" cy="5305.12" r="61.5748" /> 
<circle cx="15738.9" cy="8305.12" r="61.5748" /> 
<circle cx="14738.9" cy="8305.12" r="61.5748" /> 
<circle cx="13738.9" cy="8305.12" r="61.5748" /> 
<circle cx="12738.9" cy="8305.12" r="61.5748" /> 
<circle cx="11738.9" cy="8305.12" r="61.5748" /> 
<circle cx="10738.9" cy="8305.12" r="61.5748" /> 
<circle cx="9738.91" cy="8305.12" r="61.5748" /> 
<circle cx="8738.91" cy="8305.12" r="61.5748" /> 
<circle cx="5262.53" cy="7738.56" r="59.0748" /> 
<circle cx="5262.53" cy="5816.56" r="59.0748" /> 
<circle cx="22534.2" cy="13946.9" r="61.5748" /> 
<circle cx="21534.2" cy="13946.9" r="61.5748" /> 
<circle cx="22518.4" cy="11785.4" r="61.5748" /> 
<circle cx="21518.4" cy="11785.4" r="61.5748" /> 
</g> 
</svg>
